<svg width="258" height="111" viewBox="0 0 258 111" fill="none" xmlns="http://www.w3.org/2000/svg">
                                    <rect x="0" width="258" height="111" fill="#007C3E"></rect>
                                    
                                    <path d="M27.08 30H32.3V29.148H28.124V26.04H31.316V25.188H28.124V22.272H32.084V21.42H27.08V30ZM35.7489 30.108C37.2729 30.108 38.0529 29.34 38.0529 28.2C38.0529 26.868 37.1409 26.58 35.8449 26.34C34.6929 26.136 34.3809 25.908 34.3809 25.344C34.3809 24.804 34.8489 24.444 35.5689 24.444C36.3609 24.444 36.7449 24.744 36.8889 25.428H37.8489C37.6809 24.072 36.7089 23.616 35.5809 23.616C34.5969 23.616 33.4569 24.216 33.4569 25.38C33.4569 26.472 34.0089 26.928 35.6409 27.228C36.6129 27.408 37.1049 27.624 37.1049 28.284C37.1049 28.956 36.6849 29.28 35.7369 29.28C34.7289 29.28 34.3329 28.812 34.2609 28.068H33.2889C33.3489 29.352 34.2489 30.108 35.7489 30.108ZM41.4785 30.084C41.8865 30.084 42.1265 30.024 42.3305 29.952V29.112C42.1145 29.196 41.8745 29.244 41.5625 29.244C41.0585 29.244 40.7825 28.944 40.7825 28.332V24.564H42.2465V23.724H40.7825V22.296H39.7865V23.724H38.8865V24.564H39.7865V28.428C39.7865 29.412 40.3385 30.084 41.4785 30.084ZM47.0119 30H48.0079V26.196C48.0079 25.068 48.8359 24.48 49.7599 24.48C50.7679 24.48 51.2359 24.972 51.2359 26.076V30H52.2319V26.148C52.2319 24.324 51.3199 23.616 50.0239 23.616C48.9919 23.616 48.2959 24.132 48.0079 24.72V23.724H47.0119V30ZM56.7998 29.28C55.5278 29.28 54.7478 28.344 54.7478 26.916V26.82C54.7478 25.38 55.5398 24.444 56.7998 24.444C58.0478 24.444 58.8518 25.38 58.8518 26.832V26.916C58.8518 28.332 58.0598 29.28 56.7998 29.28ZM56.7878 30.108C58.5758 30.108 59.8838 28.8 59.8838 26.904V26.808C59.8838 24.924 58.5758 23.616 56.7998 23.616C55.0238 23.616 53.7158 24.936 53.7158 26.82V26.916C53.7158 28.752 54.9998 30.108 56.7878 30.108ZM61.426 30H62.422V26.196C62.422 25.068 63.25 24.48 64.174 24.48C65.182 24.48 65.65 24.972 65.65 26.076V30H66.646V26.148C66.646 24.324 65.734 23.616 64.438 23.616C63.406 23.616 62.71 24.132 62.422 24.72V23.724H61.426V30ZM73.3456 30.108C74.2696 30.108 74.8336 29.796 75.3016 29.208V30H76.2976V25.86C76.2976 24.108 75.2056 23.616 74.0056 23.616C72.7936 23.616 71.6536 24.144 71.5216 25.572H72.5176C72.6136 24.804 73.0936 24.444 73.9576 24.444C74.9176 24.444 75.3016 24.864 75.3016 25.86V26.316H74.4016C72.7936 26.316 71.2576 26.808 71.2576 28.26C71.2576 29.544 72.1816 30.108 73.3456 30.108ZM73.4416 29.316C72.5656 29.316 72.2536 28.908 72.2536 28.26C72.2536 27.336 73.1776 27.024 74.4376 27.024H75.3016V27.804C75.3016 28.776 74.4976 29.316 73.4416 29.316ZM80.6181 30.108C81.5301 30.108 82.4061 29.532 82.7661 28.92V30H83.7621V20.724H82.7661V24.732C82.4061 24.12 81.7581 23.616 80.7141 23.616C78.9861 23.616 77.7861 24.972 77.7861 26.892V26.988C77.7861 28.944 78.9741 30.108 80.6181 30.108ZM80.7261 29.28C79.6701 29.28 78.8181 28.524 78.8181 26.94V26.844C78.8181 25.32 79.5621 24.444 80.8101 24.444C82.0341 24.444 82.8021 25.2 82.8021 26.808V26.904C82.8021 28.512 81.8901 29.28 80.7261 29.28ZM85.8015 30H86.7975V23.724H85.8015V30ZM86.2815 22.416C86.6415 22.416 86.9415 22.116 86.9415 21.756C86.9415 21.396 86.6415 21.096 86.2815 21.096C85.9215 21.096 85.6215 21.396 85.6215 21.756C85.6215 22.116 85.9215 22.416 86.2815 22.416ZM88.8361 32.184H89.8321V28.968C90.1921 29.592 90.9241 30.108 91.9561 30.108C93.6841 30.108 94.8121 28.788 94.8121 26.868V26.772C94.8121 24.816 93.6001 23.616 91.9561 23.616C91.0441 23.616 90.1921 24.168 89.8321 24.78V23.724H88.8361V32.184ZM91.8601 29.28C90.6361 29.28 89.7961 28.524 89.7961 26.916V26.82C89.7961 25.212 90.6841 24.444 91.8481 24.444C92.9041 24.444 93.7801 25.236 93.7801 26.82V26.916C93.7801 28.44 93.1081 29.28 91.8601 29.28ZM96.3836 30H97.3796V23.724H96.3836V30ZM96.8636 22.416C97.2236 22.416 97.5236 22.116 97.5236 21.756C97.5236 21.396 97.2236 21.096 96.8636 21.096C96.5036 21.096 96.2036 21.396 96.2036 21.756C96.2036 22.116 96.5036 22.416 96.8636 22.416ZM101.362 30.108C102.886 30.108 103.666 29.34 103.666 28.2C103.666 26.868 102.754 26.58 101.458 26.34C100.306 26.136 99.9942 25.908 99.9942 25.344C99.9942 24.804 100.462 24.444 101.182 24.444C101.974 24.444 102.358 24.744 102.502 25.428H103.462C103.294 24.072 102.322 23.616 101.194 23.616C100.21 23.616 99.0702 24.216 99.0702 25.38C99.0702 26.472 99.6222 26.928 101.254 27.228C102.226 27.408 102.718 27.624 102.718 28.284C102.718 28.956 102.298 29.28 101.35 29.28C100.342 29.28 99.9462 28.812 99.8742 28.068H98.9022C98.9622 29.352 99.8622 30.108 101.362 30.108ZM105.208 30H106.204V23.724H105.208V30ZM105.688 22.416C106.048 22.416 106.348 22.116 106.348 21.756C106.348 21.396 106.048 21.096 105.688 21.096C105.328 21.096 105.028 21.396 105.028 21.756C105.028 22.116 105.328 22.416 105.688 22.416ZM110.846 30.108C112.358 30.108 113.45 29.1 113.582 27.744H112.658C112.55 28.764 111.746 29.28 110.858 29.28C109.646 29.28 108.806 28.464 108.806 26.928V26.832C108.806 25.356 109.682 24.444 110.822 24.444C111.686 24.444 112.406 24.816 112.562 25.812H113.546C113.354 24.216 112.13 23.616 110.822 23.616C109.142 23.616 107.774 24.912 107.774 26.832V26.928C107.774 28.872 109.094 30.108 110.846 30.108ZM115.11 30H116.106V23.724H115.11V30ZM115.59 22.416C115.95 22.416 116.25 22.116 116.25 21.756C116.25 21.396 115.95 21.096 115.59 21.096C115.23 21.096 114.93 21.396 114.93 21.756C114.93 22.116 115.23 22.416 115.59 22.416ZM118.145 30H119.141V26.196C119.141 25.068 119.969 24.48 120.893 24.48C121.901 24.48 122.369 24.972 122.369 26.076V30H123.365V26.148C123.365 24.324 122.453 23.616 121.157 23.616C120.125 23.616 119.429 24.132 119.141 24.72V23.724H118.145V30ZM127.825 32.292C129.577 32.292 130.813 31.404 130.825 29.58V23.724H129.829V24.732C129.469 24.12 128.821 23.616 127.777 23.616C126.049 23.616 124.849 25.032 124.849 26.736V26.82C124.849 28.548 126.061 29.796 127.705 29.796C128.617 29.796 129.469 29.22 129.829 28.608V29.52C129.829 30.864 129.049 31.452 127.813 31.452C126.745 31.452 126.145 31.08 126.001 30.36H124.981C125.149 31.416 125.965 32.292 127.825 32.292ZM127.813 28.968C126.757 28.968 125.881 28.152 125.881 26.784V26.688C125.881 25.368 126.625 24.444 127.873 24.444C129.097 24.444 129.865 25.26 129.865 26.664V26.748C129.865 28.152 128.977 28.968 127.813 28.968ZM138.38 30.108C139.292 30.108 140.168 29.532 140.528 28.92V30H141.524V20.724H140.528V24.732C140.168 24.12 139.52 23.616 138.476 23.616C136.748 23.616 135.548 24.972 135.548 26.892V26.988C135.548 28.944 136.736 30.108 138.38 30.108ZM138.488 29.28C137.432 29.28 136.58 28.524 136.58 26.94V26.844C136.58 25.32 137.324 24.444 138.572 24.444C139.796 24.444 140.564 25.2 140.564 26.808V26.904C140.564 28.512 139.652 29.28 138.488 29.28ZM146.155 29.28C144.883 29.28 144.103 28.344 144.103 26.916V26.82C144.103 25.38 144.895 24.444 146.155 24.444C147.403 24.444 148.207 25.38 148.207 26.832V26.916C148.207 28.332 147.415 29.28 146.155 29.28ZM146.143 30.108C147.931 30.108 149.239 28.8 149.239 26.904V26.808C149.239 24.924 147.931 23.616 146.155 23.616C144.379 23.616 143.071 24.936 143.071 26.82V26.916C143.071 28.752 144.355 30.108 146.143 30.108ZM150.805 30H151.813V20.724H150.805V30ZM156.468 29.28C155.196 29.28 154.416 28.344 154.416 26.916V26.82C154.416 25.38 155.208 24.444 156.468 24.444C157.716 24.444 158.52 25.38 158.52 26.832V26.916C158.52 28.332 157.728 29.28 156.468 29.28ZM156.456 30.108C158.244 30.108 159.552 28.8 159.552 26.904V26.808C159.552 24.924 158.244 23.616 156.468 23.616C154.692 23.616 153.384 24.936 153.384 26.82V26.916C153.384 28.752 154.668 30.108 156.456 30.108ZM161.094 30H162.09V26.556C162.09 25.008 162.894 24.612 164.154 24.552V23.616C163.026 23.652 162.486 24.144 162.09 24.852V23.724H161.094V30ZM168.805 30H169.801V23.724H168.805V30ZM169.285 22.416C169.645 22.416 169.945 22.116 169.945 21.756C169.945 21.396 169.645 21.096 169.285 21.096C168.925 21.096 168.625 21.396 168.625 21.756C168.625 22.116 168.925 22.416 169.285 22.416ZM171.84 30H172.836V26.196C172.836 25.068 173.664 24.48 174.588 24.48C175.596 24.48 176.064 24.972 176.064 26.076V30H177.06V26.148C177.06 24.324 176.148 23.616 174.852 23.616C173.82 23.616 173.124 24.132 172.836 24.72V23.724H171.84V30ZM186.7 32.184H187.696V23.724H186.7V24.732C186.34 24.12 185.692 23.616 184.648 23.616C182.92 23.616 181.72 24.972 181.72 26.892V26.988C181.72 28.944 182.908 30.108 184.552 30.108C185.464 30.108 186.34 29.532 186.7 28.92V32.184ZM184.66 29.28C183.604 29.28 182.752 28.524 182.752 26.94V26.844C182.752 25.32 183.496 24.444 184.744 24.444C185.968 24.444 186.736 25.2 186.736 26.808V26.904C186.736 28.512 185.824 29.28 184.66 29.28ZM191.835 30.108C192.843 30.108 193.539 29.592 193.827 29.004V30H194.823V23.724H193.827V27.528C193.827 28.656 192.987 29.244 192.099 29.244C191.115 29.244 190.647 28.752 190.647 27.648V23.724H189.651V27.696C189.651 29.424 190.587 30.108 191.835 30.108ZM196.86 30H197.856V23.724H196.86V30ZM197.34 22.416C197.7 22.416 198 22.116 198 21.756C198 21.396 197.7 21.096 197.34 21.096C196.98 21.096 196.68 21.396 196.68 21.756C196.68 22.116 196.98 22.416 197.34 22.416ZM201.839 30.108C203.363 30.108 204.143 29.34 204.143 28.2C204.143 26.868 203.231 26.58 201.935 26.34C200.783 26.136 200.471 25.908 200.471 25.344C200.471 24.804 200.939 24.444 201.659 24.444C202.451 24.444 202.835 24.744 202.979 25.428H203.939C203.771 24.072 202.799 23.616 201.671 23.616C200.687 23.616 199.547 24.216 199.547 25.38C199.547 26.472 200.099 26.928 201.731 27.228C202.703 27.408 203.195 27.624 203.195 28.284C203.195 28.956 202.775 29.28 201.827 29.28C200.819 29.28 200.423 28.812 200.351 28.068H199.379C199.439 29.352 200.339 30.108 201.839 30.108ZM28.58 50.108C29.504 50.108 30.068 49.796 30.536 49.208V50H31.532V45.86C31.532 44.108 30.44 43.616 29.24 43.616C28.028 43.616 26.888 44.144 26.756 45.572H27.752C27.848 44.804 28.328 44.444 29.192 44.444C30.152 44.444 30.536 44.864 30.536 45.86V46.316H29.636C28.028 46.316 26.492 46.808 26.492 48.26C26.492 49.544 27.416 50.108 28.58 50.108ZM28.676 49.316C27.8 49.316 27.488 48.908 27.488 48.26C27.488 47.336 28.412 47.024 29.672 47.024H30.536V47.804C30.536 48.776 29.732 49.316 28.676 49.316ZM33.5125 50H34.5205V40.724H33.5125V50ZM36.5828 50H37.5788V43.724H36.5828V50ZM37.0628 42.416C37.4228 42.416 37.7228 42.116 37.7228 41.756C37.7228 41.396 37.4228 41.096 37.0628 41.096C36.7028 41.096 36.4028 41.396 36.4028 41.756C36.4028 42.116 36.7028 42.416 37.0628 42.416ZM44.1294 52.184H45.1254V43.724H44.1294V44.732C43.7694 44.12 43.1214 43.616 42.0774 43.616C40.3494 43.616 39.1494 44.972 39.1494 46.892V46.988C39.1494 48.944 40.3374 50.108 41.9814 50.108C42.8934 50.108 43.7694 49.532 44.1294 48.92V52.184ZM42.0894 49.28C41.0334 49.28 40.1814 48.524 40.1814 46.94V46.844C40.1814 45.32 40.9254 44.444 42.1734 44.444C43.3974 44.444 44.1654 45.2 44.1654 46.808V46.904C44.1654 48.512 43.2534 49.28 42.0894 49.28ZM49.2648 50.108C50.2728 50.108 50.9688 49.592 51.2568 49.004V50H52.2528V43.724H51.2568V47.528C51.2568 48.656 50.4168 49.244 49.5288 49.244C48.5448 49.244 48.0768 48.752 48.0768 47.648V43.724H47.0808V47.696C47.0808 49.424 48.0168 50.108 49.2648 50.108ZM54.2898 50H55.2858V43.724H54.2898V50ZM54.7698 42.416C55.1298 42.416 55.4298 42.116 55.4298 41.756C55.4298 41.396 55.1298 41.096 54.7698 41.096C54.4098 41.096 54.1098 41.396 54.1098 41.756C54.1098 42.116 54.4098 42.416 54.7698 42.416ZM57.3244 52.184H58.3204V48.968C58.6804 49.592 59.4124 50.108 60.4444 50.108C62.1724 50.108 63.3004 48.788 63.3004 46.868V46.772C63.3004 44.816 62.0884 43.616 60.4444 43.616C59.5324 43.616 58.6804 44.168 58.3204 44.78V43.724H57.3244V52.184ZM60.3484 49.28C59.1244 49.28 58.2844 48.524 58.2844 46.916V46.82C58.2844 45.212 59.1724 44.444 60.3364 44.444C61.3924 44.444 62.2684 45.236 62.2684 46.82V46.916C62.2684 48.44 61.5964 49.28 60.3484 49.28ZM69.9676 50.108C71.4916 50.108 72.2716 49.34 72.2716 48.2C72.2716 46.868 71.3596 46.58 70.0636 46.34C68.9116 46.136 68.5996 45.908 68.5996 45.344C68.5996 44.804 69.0676 44.444 69.7876 44.444C70.5796 44.444 70.9636 44.744 71.1076 45.428H72.0676C71.8996 44.072 70.9276 43.616 69.7996 43.616C68.8156 43.616 67.6756 44.216 67.6756 45.38C67.6756 46.472 68.2276 46.928 69.8596 47.228C70.8316 47.408 71.3236 47.624 71.3236 48.284C71.3236 48.956 70.9036 49.28 69.9556 49.28C68.9476 49.28 68.5516 48.812 68.4796 48.068H67.5076C67.5676 49.352 68.4676 50.108 69.9676 50.108ZM73.8133 50H74.8093V43.724H73.8133V50ZM74.2933 42.416C74.6533 42.416 74.9533 42.116 74.9533 41.756C74.9533 41.396 74.6533 41.096 74.2933 41.096C73.9333 41.096 73.6333 41.396 73.6333 41.756C73.6333 42.116 73.9333 42.416 74.2933 42.416ZM78.7558 50.084C79.1638 50.084 79.4038 50.024 79.6078 49.952V49.112C79.3918 49.196 79.1518 49.244 78.8398 49.244C78.3358 49.244 78.0598 48.944 78.0598 48.332V44.564H79.5238V43.724H78.0598V42.296H77.0638V43.724H76.1638V44.564H77.0638V48.428C77.0638 49.412 77.6158 50.084 78.7558 50.084ZM86.6533 50.108C87.5653 50.108 88.4413 49.532 88.8013 48.92V50H89.7973V40.724H88.8013V44.732C88.4413 44.12 87.7933 43.616 86.7493 43.616C85.0213 43.616 83.8213 44.972 83.8213 46.892V46.988C83.8213 48.944 85.0093 50.108 86.6533 50.108ZM86.7613 49.28C85.7053 49.28 84.8533 48.524 84.8533 46.94V46.844C84.8533 45.32 85.5973 44.444 86.8453 44.444C88.0693 44.444 88.8373 45.2 88.8373 46.808V46.904C88.8373 48.512 87.9253 49.28 86.7613 49.28ZM94.3807 50.108C95.7967 50.108 96.8407 49.448 97.0567 48.188H96.0607C95.9287 48.92 95.3647 49.28 94.3927 49.28C93.1087 49.28 92.4247 48.488 92.3767 47.06H97.1047V46.736C97.1047 44.492 95.7367 43.616 94.2847 43.616C92.5567 43.616 91.3447 44.936 91.3447 46.832V46.928C91.3447 48.86 92.6047 50.108 94.3807 50.108ZM92.4127 46.256C92.5807 45.14 93.2647 44.444 94.2847 44.444C95.3167 44.444 95.9887 44.96 96.0847 46.256H92.4127ZM100.636 50.108C102.16 50.108 102.94 49.34 102.94 48.2C102.94 46.868 102.028 46.58 100.732 46.34C99.5796 46.136 99.2676 45.908 99.2676 45.344C99.2676 44.804 99.7356 44.444 100.456 44.444C101.248 44.444 101.632 44.744 101.776 45.428H102.736C102.568 44.072 101.596 43.616 100.468 43.616C99.4836 43.616 98.3436 44.216 98.3436 45.38C98.3436 46.472 98.8956 46.928 100.528 47.228C101.5 47.408 101.992 47.624 101.992 48.284C101.992 48.956 101.572 49.28 100.624 49.28C99.6156 49.28 99.2196 48.812 99.1476 48.068H98.1756C98.2356 49.352 99.1356 50.108 100.636 50.108ZM107.025 50.108C108.441 50.108 109.485 49.448 109.701 48.188H108.705C108.573 48.92 108.009 49.28 107.037 49.28C105.753 49.28 105.069 48.488 105.021 47.06H109.749V46.736C109.749 44.492 108.381 43.616 106.929 43.616C105.201 43.616 103.989 44.936 103.989 46.832V46.928C103.989 48.86 105.249 50.108 107.025 50.108ZM105.057 46.256C105.225 45.14 105.909 44.444 106.929 44.444C107.961 44.444 108.633 44.96 108.729 46.256H105.057ZM111.278 50H112.274V46.556C112.274 45.008 113.078 44.612 114.338 44.552V43.616C113.21 43.652 112.67 44.144 112.274 44.852V43.724H111.278V50ZM117.913 50.108C118.921 50.108 119.617 49.592 119.905 49.004V50H120.901V43.724H119.905V47.528C119.905 48.656 119.065 49.244 118.177 49.244C117.193 49.244 116.725 48.752 116.725 47.648V43.724H115.729V47.696C115.729 49.424 116.665 50.108 117.913 50.108ZM122.914 50H123.91V46.196C123.91 45.068 124.738 44.48 125.662 44.48C126.67 44.48 127.138 44.972 127.138 46.076V50H128.134V46.148C128.134 44.324 127.222 43.616 125.926 43.616C124.894 43.616 124.198 44.132 123.91 44.72V43.724H122.914V50ZM131.994 50.084C132.402 50.084 132.642 50.024 132.846 49.952V49.112C132.63 49.196 132.39 49.244 132.078 49.244C131.574 49.244 131.298 48.944 131.298 48.332V44.564H132.762V43.724H131.298V42.296H130.302V43.724H129.402V44.564H130.302V48.428C130.302 49.412 130.854 50.084 131.994 50.084ZM137.552 50H138.548V43.724H137.552V50ZM138.032 42.416C138.392 42.416 138.692 42.116 138.692 41.756C138.692 41.396 138.392 41.096 138.032 41.096C137.672 41.096 137.372 41.396 137.372 41.756C137.372 42.116 137.672 42.416 138.032 42.416ZM140.586 50H141.582V46.196C141.582 45.068 142.41 44.48 143.334 44.48C144.342 44.48 144.81 44.972 144.81 46.076V50H145.806V46.148C145.806 44.324 144.894 43.616 143.598 43.616C142.566 43.616 141.87 44.132 141.582 44.72V43.724H140.586V50ZM150.362 50.108C151.874 50.108 152.966 49.1 153.098 47.744H152.174C152.066 48.764 151.262 49.28 150.374 49.28C149.162 49.28 148.322 48.464 148.322 46.928V46.832C148.322 45.356 149.198 44.444 150.338 44.444C151.202 44.444 151.922 44.816 152.078 45.812H153.062C152.87 44.216 151.646 43.616 150.338 43.616C148.658 43.616 147.29 44.912 147.29 46.832V46.928C147.29 48.872 148.61 50.108 150.362 50.108ZM154.626 50H155.622V43.724H154.626V50ZM155.106 42.416C155.466 42.416 155.766 42.116 155.766 41.756C155.766 41.396 155.466 41.096 155.106 41.096C154.746 41.096 154.446 41.396 154.446 41.756C154.446 42.116 154.746 42.416 155.106 42.416ZM160.024 50.108C160.936 50.108 161.812 49.532 162.172 48.92V50H163.168V40.724H162.172V44.732C161.812 44.12 161.164 43.616 160.12 43.616C158.392 43.616 157.192 44.972 157.192 46.892V46.988C157.192 48.944 158.38 50.108 160.024 50.108ZM160.132 49.28C159.076 49.28 158.224 48.524 158.224 46.94V46.844C158.224 45.32 158.968 44.444 160.216 44.444C161.44 44.444 162.208 45.2 162.208 46.808V46.904C162.208 48.512 161.296 49.28 160.132 49.28ZM165.208 50H166.204V43.724H165.208V50ZM165.688 42.416C166.048 42.416 166.348 42.116 166.348 41.756C166.348 41.396 166.048 41.096 165.688 41.096C165.328 41.096 165.028 41.396 165.028 41.756C165.028 42.116 165.328 42.416 165.688 42.416ZM170.606 50.108C171.518 50.108 172.394 49.532 172.754 48.92V50H173.75V40.724H172.754V44.732C172.394 44.12 171.746 43.616 170.702 43.616C168.974 43.616 167.774 44.972 167.774 46.892V46.988C167.774 48.944 168.962 50.108 170.606 50.108ZM170.714 49.28C169.658 49.28 168.806 48.524 168.806 46.94V46.844C168.806 45.32 169.55 44.444 170.798 44.444C172.022 44.444 172.79 45.2 172.79 46.808V46.904C172.79 48.512 171.878 49.28 170.714 49.28ZM177.89 50.108C178.898 50.108 179.594 49.592 179.882 49.004V50H180.878V43.724H179.882V47.528C179.882 48.656 179.042 49.244 178.154 49.244C177.17 49.244 176.702 48.752 176.702 47.648V43.724H175.706V47.696C175.706 49.424 176.642 50.108 177.89 50.108ZM182.891 50H183.887V46.196C183.887 45.068 184.715 44.48 185.639 44.48C186.647 44.48 187.115 44.972 187.115 46.076V50H188.111V46.148C188.111 44.324 187.199 43.616 185.903 43.616C184.871 43.616 184.175 44.132 183.887 44.72V43.724H182.891V50ZM191.971 50.084C192.379 50.084 192.619 50.024 192.823 49.952V49.112C192.607 49.196 192.367 49.244 192.055 49.244C191.551 49.244 191.275 48.944 191.275 48.332V44.564H192.739V43.724H191.275V42.296H190.279V43.724H189.379V44.564H190.279V48.428C190.279 49.412 190.831 50.084 191.971 50.084ZM199.868 50.108C200.78 50.108 201.656 49.532 202.016 48.92V50H203.012V40.724H202.016V44.732C201.656 44.12 201.008 43.616 199.964 43.616C198.236 43.616 197.036 44.972 197.036 46.892V46.988C197.036 48.944 198.224 50.108 199.868 50.108ZM199.976 49.28C198.92 49.28 198.068 48.524 198.068 46.94V46.844C198.068 45.32 198.812 44.444 200.06 44.444C201.284 44.444 202.052 45.2 202.052 46.808V46.904C202.052 48.512 201.14 49.28 199.976 49.28ZM207.644 49.28C206.372 49.28 205.592 48.344 205.592 46.916V46.82C205.592 45.38 206.384 44.444 207.644 44.444C208.892 44.444 209.696 45.38 209.696 46.832V46.916C209.696 48.332 208.904 49.28 207.644 49.28ZM207.632 50.108C209.42 50.108 210.728 48.8 210.728 46.904V46.808C210.728 44.924 209.42 43.616 207.644 43.616C205.868 43.616 204.56 44.936 204.56 46.82V46.916C204.56 48.752 205.844 50.108 207.632 50.108ZM28.58 70.108C29.504 70.108 30.068 69.796 30.536 69.208V70H31.532V65.86C31.532 64.108 30.44 63.616 29.24 63.616C28.028 63.616 26.888 64.144 26.756 65.572H27.752C27.848 64.804 28.328 64.444 29.192 64.444C30.152 64.444 30.536 64.864 30.536 65.86V66.316H29.636C28.028 66.316 26.492 66.808 26.492 68.26C26.492 69.544 27.416 70.108 28.58 70.108ZM28.676 69.316C27.8 69.316 27.488 68.908 27.488 68.26C27.488 67.336 28.412 67.024 29.672 67.024H30.536V67.804C30.536 68.776 29.732 69.316 28.676 69.316ZM33.5125 70H34.5205V60.724H33.5125V70ZM36.5828 70H37.5788V63.724H36.5828V70ZM37.0628 62.416C37.4228 62.416 37.7228 62.116 37.7228 61.756C37.7228 61.396 37.4228 61.096 37.0628 61.096C36.7028 61.096 36.4028 61.396 36.4028 61.756C36.4028 62.116 36.7028 62.416 37.0628 62.416ZM44.1294 72.184H45.1254V63.724H44.1294V64.732C43.7694 64.12 43.1214 63.616 42.0774 63.616C40.3494 63.616 39.1494 64.972 39.1494 66.892V66.988C39.1494 68.944 40.3374 70.108 41.9814 70.108C42.8934 70.108 43.7694 69.532 44.1294 68.92V72.184ZM42.0894 69.28C41.0334 69.28 40.1814 68.524 40.1814 66.94V66.844C40.1814 65.32 40.9254 64.444 42.1734 64.444C43.3974 64.444 44.1654 65.2 44.1654 66.808V66.904C44.1654 68.512 43.2534 69.28 42.0894 69.28ZM49.2648 70.108C50.2728 70.108 50.9688 69.592 51.2568 69.004V70H52.2528V63.724H51.2568V67.528C51.2568 68.656 50.4168 69.244 49.5288 69.244C48.5448 69.244 48.0768 68.752 48.0768 67.648V63.724H47.0808V67.696C47.0808 69.424 48.0168 70.108 49.2648 70.108ZM55.8378 70.108C56.7618 70.108 57.3258 69.796 57.7938 69.208V70H58.7898V65.86C58.7898 64.108 57.6978 63.616 56.4978 63.616C55.2858 63.616 54.1458 64.144 54.0138 65.572H55.0098C55.1058 64.804 55.5858 64.444 56.4498 64.444C57.4098 64.444 57.7938 64.864 57.7938 65.86V66.316H56.8938C55.2858 66.316 53.7498 66.808 53.7498 68.26C53.7498 69.544 54.6738 70.108 55.8378 70.108ZM55.9338 69.316C55.0578 69.316 54.7458 68.908 54.7458 68.26C54.7458 67.336 55.6698 67.024 56.9298 67.024H57.7938V67.804C57.7938 68.776 56.9898 69.316 55.9338 69.316ZM63.9461 70H64.9421V63.724H63.9461V70ZM64.4261 62.416C64.7861 62.416 65.0861 62.116 65.0861 61.756C65.0861 61.396 64.7861 61.096 64.4261 61.096C64.0661 61.096 63.7661 61.396 63.7661 61.756C63.7661 62.116 64.0661 62.416 64.4261 62.416ZM66.9807 70H67.9767V66.196C67.9767 65.068 68.8047 64.48 69.7287 64.48C70.7367 64.48 71.2047 64.972 71.2047 66.076V70H72.2007V66.148C72.2007 64.324 71.2887 63.616 69.9927 63.616C68.9607 63.616 68.2647 64.132 67.9767 64.72V63.724H66.9807V70ZM74.8365 70.06C75.2565 70.06 75.6045 69.724 75.6045 69.292C75.6045 68.86 75.2565 68.524 74.8365 68.524C74.4165 68.524 74.0685 68.86 74.0685 69.292C74.0685 69.724 74.4165 70.06 74.8365 70.06ZM80.787 70H86.007V69.148H81.831V66.04H85.023V65.188H81.831V62.272H85.791V61.42H80.787V70ZM89.4199 70.084C89.8279 70.084 90.0679 70.024 90.2719 69.952V69.112C90.0559 69.196 89.8159 69.244 89.5039 69.244C88.9999 69.244 88.7239 68.944 88.7239 68.332V64.564H90.1879V63.724H88.7239V62.296H87.7279V63.724H86.8279V64.564H87.7279V68.428C87.7279 69.412 88.2799 70.084 89.4199 70.084ZM99.4653 72.184H100.461V63.724H99.4653V64.732C99.1053 64.12 98.4573 63.616 97.4133 63.616C95.6853 63.616 94.4853 64.972 94.4853 66.892V66.988C94.4853 68.944 95.6733 70.108 97.3173 70.108C98.2293 70.108 99.1053 69.532 99.4653 68.92V72.184ZM97.4253 69.28C96.3693 69.28 95.5173 68.524 95.5173 66.94V66.844C95.5173 65.32 96.2613 64.444 97.5093 64.444C98.7333 64.444 99.5013 65.2 99.5013 66.808V66.904C99.5013 68.512 98.5893 69.28 97.4253 69.28ZM104.601 70.108C105.609 70.108 106.305 69.592 106.593 69.004V70H107.589V63.724H106.593V67.528C106.593 68.656 105.753 69.244 104.865 69.244C103.881 69.244 103.413 68.752 103.413 67.648V63.724H102.417V67.696C102.417 69.424 103.353 70.108 104.601 70.108ZM109.626 70H110.622V63.724H109.626V70ZM110.106 62.416C110.466 62.416 110.766 62.116 110.766 61.756C110.766 61.396 110.466 61.096 110.106 61.096C109.746 61.096 109.446 61.396 109.446 61.756C109.446 62.116 109.746 62.416 110.106 62.416ZM114.604 70.108C116.128 70.108 116.908 69.34 116.908 68.2C116.908 66.868 115.996 66.58 114.7 66.34C113.548 66.136 113.236 65.908 113.236 65.344C113.236 64.804 113.704 64.444 114.424 64.444C115.216 64.444 115.6 64.744 115.744 65.428H116.704C116.536 64.072 115.564 63.616 114.436 63.616C113.452 63.616 112.312 64.216 112.312 65.38C112.312 66.472 112.864 66.928 114.496 67.228C115.468 67.408 115.96 67.624 115.96 68.284C115.96 68.956 115.54 69.28 114.592 69.28C113.584 69.28 113.188 68.812 113.116 68.068H112.144C112.204 69.352 113.104 70.108 114.604 70.108ZM123.966 70.108C124.878 70.108 125.754 69.532 126.114 68.92V70H127.11V60.724H126.114V64.732C125.754 64.12 125.106 63.616 124.062 63.616C122.334 63.616 121.134 64.972 121.134 66.892V66.988C121.134 68.944 122.322 70.108 123.966 70.108ZM124.074 69.28C123.018 69.28 122.166 68.524 122.166 66.94V66.844C122.166 65.32 122.91 64.444 124.158 64.444C125.382 64.444 126.15 65.2 126.15 66.808V66.904C126.15 68.512 125.238 69.28 124.074 69.28ZM131.693 70.108C133.109 70.108 134.153 69.448 134.369 68.188H133.373C133.241 68.92 132.677 69.28 131.705 69.28C130.421 69.28 129.737 68.488 129.689 67.06H134.417V66.736C134.417 64.492 133.049 63.616 131.597 63.616C129.869 63.616 128.657 64.936 128.657 66.832V66.928C128.657 68.86 129.917 70.108 131.693 70.108ZM129.725 66.256C129.893 65.14 130.577 64.444 131.597 64.444C132.629 64.444 133.301 64.96 133.397 66.256H129.725ZM137.948 70.108C139.472 70.108 140.252 69.34 140.252 68.2C140.252 66.868 139.34 66.58 138.044 66.34C136.892 66.136 136.58 65.908 136.58 65.344C136.58 64.804 137.048 64.444 137.768 64.444C138.56 64.444 138.944 64.744 139.088 65.428H140.048C139.88 64.072 138.908 63.616 137.78 63.616C136.796 63.616 135.656 64.216 135.656 65.38C135.656 66.472 136.208 66.928 137.84 67.228C138.812 67.408 139.304 67.624 139.304 68.284C139.304 68.956 138.884 69.28 137.936 69.28C136.928 69.28 136.532 68.812 136.46 68.068H135.488C135.548 69.352 136.448 70.108 137.948 70.108ZM144.338 70.108C145.754 70.108 146.798 69.448 147.014 68.188H146.018C145.886 68.92 145.322 69.28 144.35 69.28C143.066 69.28 142.382 68.488 142.334 67.06H147.062V66.736C147.062 64.492 145.694 63.616 144.242 63.616C142.514 63.616 141.302 64.936 141.302 66.832V66.928C141.302 68.86 142.562 70.108 144.338 70.108ZM142.37 66.256C142.538 65.14 143.222 64.444 144.242 64.444C145.274 64.444 145.946 64.96 146.042 66.256H142.37ZM148.59 70H149.586V66.556C149.586 65.008 150.39 64.612 151.65 64.552V63.616C150.522 63.652 149.982 64.144 149.586 64.852V63.724H148.59V70ZM155.226 70.108C156.234 70.108 156.93 69.592 157.218 69.004V70H158.214V63.724H157.218V67.528C157.218 68.656 156.378 69.244 155.49 69.244C154.506 69.244 154.038 68.752 154.038 67.648V63.724H153.042V67.696C153.042 69.424 153.978 70.108 155.226 70.108ZM160.227 70H161.223V66.196C161.223 65.068 162.051 64.48 162.975 64.48C163.983 64.48 164.451 64.972 164.451 66.076V70H165.447V66.148C165.447 64.324 164.535 63.616 163.239 63.616C162.207 63.616 161.511 64.132 161.223 64.72V63.724H160.227V70ZM169.307 70.084C169.715 70.084 169.955 70.024 170.159 69.952V69.112C169.943 69.196 169.703 69.244 169.391 69.244C168.887 69.244 168.611 68.944 168.611 68.332V64.564H170.075V63.724H168.611V62.296H167.615V63.724H166.715V64.564H167.615V68.428C167.615 69.412 168.167 70.084 169.307 70.084ZM176.412 70.108C177.336 70.108 177.9 69.796 178.368 69.208V70H179.364V65.86C179.364 64.108 178.272 63.616 177.072 63.616C175.86 63.616 174.72 64.144 174.588 65.572H175.584C175.68 64.804 176.16 64.444 177.024 64.444C177.984 64.444 178.368 64.864 178.368 65.86V66.316H177.468C175.86 66.316 174.324 66.808 174.324 68.26C174.324 69.544 175.248 70.108 176.412 70.108ZM176.508 69.316C175.632 69.316 175.32 68.908 175.32 68.26C175.32 67.336 176.244 67.024 177.504 67.024H178.368V67.804C178.368 68.776 177.564 69.316 176.508 69.316ZM181.345 70H182.353V60.724H181.345V70ZM184.415 70H185.411V63.724H184.415V70ZM184.895 62.416C185.255 62.416 185.555 62.116 185.555 61.756C185.555 61.396 185.255 61.096 184.895 61.096C184.535 61.096 184.235 61.396 184.235 61.756C184.235 62.116 184.535 62.416 184.895 62.416ZM191.961 72.184H192.957V63.724H191.961V64.732C191.601 64.12 190.953 63.616 189.909 63.616C188.181 63.616 186.981 64.972 186.981 66.892V66.988C186.981 68.944 188.169 70.108 189.813 70.108C190.725 70.108 191.601 69.532 191.961 68.92V72.184ZM189.921 69.28C188.865 69.28 188.013 68.524 188.013 66.94V66.844C188.013 65.32 188.757 64.444 190.005 64.444C191.229 64.444 191.997 65.2 191.997 66.808V66.904C191.997 68.512 191.085 69.28 189.921 69.28ZM197.097 70.108C198.105 70.108 198.801 69.592 199.089 69.004V70H200.085V63.724H199.089V67.528C199.089 68.656 198.249 69.244 197.361 69.244C196.377 69.244 195.909 68.752 195.909 67.648V63.724H194.913V67.696C194.913 69.424 195.849 70.108 197.097 70.108ZM203.67 70.108C204.594 70.108 205.158 69.796 205.626 69.208V70H206.622V65.86C206.622 64.108 205.53 63.616 204.33 63.616C203.118 63.616 201.978 64.144 201.846 65.572H202.842C202.938 64.804 203.418 64.444 204.282 64.444C205.242 64.444 205.626 64.864 205.626 65.86V66.316H204.726C203.118 66.316 201.582 66.808 201.582 68.26C201.582 69.544 202.506 70.108 203.67 70.108ZM203.766 69.316C202.89 69.316 202.578 68.908 202.578 68.26C202.578 67.336 203.502 67.024 204.762 67.024H205.626V67.804C205.626 68.776 204.822 69.316 203.766 69.316ZM28.58 90H29.852L32.108 83.724H31.076L29.24 88.992L27.38 83.724H26.3L28.58 90ZM35.8584 89.28C34.5864 89.28 33.8064 88.344 33.8064 86.916V86.82C33.8064 85.38 34.5984 84.444 35.8584 84.444C37.1064 84.444 37.9104 85.38 37.9104 86.832V86.916C37.9104 88.332 37.1184 89.28 35.8584 89.28ZM35.8464 90.108C37.6344 90.108 38.9424 88.8 38.9424 86.904V86.808C38.9424 84.924 37.6344 83.616 35.8584 83.616C34.0824 83.616 32.7744 84.936 32.7744 86.82V86.916C32.7744 88.752 34.0584 90.108 35.8464 90.108ZM40.5086 90H41.5166V80.724H40.5086V90ZM45.6789 90.108C46.6869 90.108 47.3829 89.592 47.6709 89.004V90H48.6669V83.724H47.6709V87.528C47.6709 88.656 46.8309 89.244 45.9429 89.244C44.9589 89.244 44.4909 88.752 44.4909 87.648V83.724H43.4949V87.696C43.4949 89.424 44.4309 90.108 45.6789 90.108ZM50.6799 92.184H51.6759V88.968C52.0359 89.592 52.7679 90.108 53.7999 90.108C55.5279 90.108 56.6559 88.788 56.6559 86.868V86.772C56.6559 84.816 55.4439 83.616 53.7999 83.616C52.8879 83.616 52.0359 84.168 51.6759 84.78V83.724H50.6799V92.184ZM53.7039 89.28C52.4799 89.28 51.6399 88.524 51.6399 86.916V86.82C51.6399 85.212 52.5279 84.444 53.6919 84.444C54.7479 84.444 55.6239 85.236 55.6239 86.82V86.916C55.6239 88.44 54.9519 89.28 53.7039 89.28ZM60.1113 90.084C60.5193 90.084 60.7593 90.024 60.9633 89.952V89.112C60.7473 89.196 60.5073 89.244 60.1953 89.244C59.6913 89.244 59.4153 88.944 59.4153 88.332V84.564H60.8793V83.724H59.4153V82.296H58.4193V83.724H57.5193V84.564H58.4193V88.428C58.4193 89.412 58.9713 90.084 60.1113 90.084ZM64.0995 90.108C65.0235 90.108 65.5875 89.796 66.0555 89.208V90H67.0515V85.86C67.0515 84.108 65.9595 83.616 64.7595 83.616C63.5475 83.616 62.4075 84.144 62.2755 85.572H63.2715C63.3675 84.804 63.8475 84.444 64.7115 84.444C65.6715 84.444 66.0555 84.864 66.0555 85.86V86.316H65.1555C63.5475 86.316 62.0115 86.808 62.0115 88.26C62.0115 89.544 62.9355 90.108 64.0995 90.108ZM64.1955 89.316C63.3195 89.316 63.0075 88.908 63.0075 88.26C63.0075 87.336 63.9315 87.024 65.1915 87.024H66.0555V87.804C66.0555 88.776 65.2515 89.316 64.1955 89.316ZM70.916 90.084C71.324 90.084 71.564 90.024 71.768 89.952V89.112C71.552 89.196 71.312 89.244 71 89.244C70.496 89.244 70.22 88.944 70.22 88.332V84.564H71.684V83.724H70.22V82.296H69.224V83.724H68.324V84.564H69.224V88.428C69.224 89.412 69.776 90.084 70.916 90.084ZM75.8416 90.108C77.2576 90.108 78.3016 89.448 78.5176 88.188H77.5216C77.3896 88.92 76.8256 89.28 75.8536 89.28C74.5696 89.28 73.8856 88.488 73.8376 87.06H78.5656V86.736C78.5656 84.492 77.1976 83.616 75.7456 83.616C74.0176 83.616 72.8056 84.936 72.8056 86.832V86.928C72.8056 88.86 74.0656 90.108 75.8416 90.108ZM73.8736 86.256C74.0416 85.14 74.7256 84.444 75.7456 84.444C76.7776 84.444 77.4496 84.96 77.5456 86.256H73.8736ZM85.8377 90.108C87.2537 90.108 88.2977 89.448 88.5137 88.188H87.5177C87.3857 88.92 86.8217 89.28 85.8497 89.28C84.5657 89.28 83.8817 88.488 83.8337 87.06H88.5617V86.736C88.5617 84.492 87.1937 83.616 85.7417 83.616C84.0137 83.616 82.8017 84.936 82.8017 86.832V86.928C82.8017 88.86 84.0617 90.108 85.8377 90.108ZM83.8697 86.256C84.0377 85.14 84.7217 84.444 85.7417 84.444C86.7737 84.444 87.4457 84.96 87.5417 86.256H83.8697ZM90.114 90H91.122V80.724H90.114V90ZM93.1843 90H94.1803V83.724H93.1843V90ZM93.6643 82.416C94.0243 82.416 94.3243 82.116 94.3243 81.756C94.3243 81.396 94.0243 81.096 93.6643 81.096C93.3043 81.096 93.0043 81.396 93.0043 81.756C93.0043 82.116 93.3043 82.416 93.6643 82.416ZM98.1269 90.084C98.5349 90.084 98.7749 90.024 98.9789 89.952V89.112C98.7629 89.196 98.5229 89.244 98.2109 89.244C97.7069 89.244 97.4309 88.944 97.4309 88.332V84.564H98.8949V83.724H97.4309V82.296H96.4349V83.724H95.5349V84.564H96.4349V88.428C96.4349 89.412 96.9869 90.084 98.1269 90.084ZM101.169 90.06C101.589 90.06 101.937 89.724 101.937 89.292C101.937 88.86 101.589 88.524 101.169 88.524C100.749 88.524 100.401 88.86 100.401 89.292C100.401 89.724 100.749 90.06 101.169 90.06Z" fill="white"></path>
                                    </svg>