<svg width="35" height="30" viewBox="0 0 35 30" fill="none" xmlns="http://www.w3.org/2000/svg">
<path d="M7.50376 16.1708H7.16063V14.0484C7.16063 11.2833 8.25912 8.63138 10.2144 6.67613C12.1698 4.72089 14.8218 3.62244 17.587 3.62244C20.3523 3.62244 23.0043 4.72089 24.9596 6.67613C26.915 8.63138 28.0134 11.2833 28.0134 14.0484V16.1708H27.6703H27.0772C26.3816 16.1708 25.7146 16.4471 25.2228 16.9389C24.7309 17.4307 24.4546 18.0978 24.4546 18.7933V26.8468H21.3958V25.9106C21.3958 25.5297 21.2445 25.1644 20.9752 24.895C20.7058 24.6257 20.3405 24.4744 19.9596 24.4744H17.587C17.2061 24.4744 16.8408 24.6257 16.5714 24.895C16.3021 25.1644 16.1508 25.5297 16.1508 25.9106V28.283C16.1508 28.6639 16.3021 29.0292 16.5714 29.2986C16.8408 29.5679 17.2061 29.7192 17.587 29.7192L27.6703 29.7192L27.6711 29.7192C29.1885 29.7144 30.6603 29.2003 31.8507 28.2594C33.0411 27.3184 33.8811 26.0051 34.2361 24.5298C34.5911 23.0546 34.4405 21.5029 33.8084 20.1234C33.1977 18.7905 32.1717 17.693 30.886 16.9939V14.0484C30.886 10.5214 29.4848 7.13894 26.9908 4.64501C24.4968 2.15108 21.1141 0.75 17.587 0.75C14.0599 0.75 10.6773 2.15108 8.18326 4.64501C5.68923 7.13894 4.28809 10.5214 4.28809 14.0484V16.9939C3.00242 17.693 1.97636 18.7905 1.36564 20.1234C0.733606 21.5029 0.583009 23.0546 0.937989 24.5298C1.29297 26.0051 2.13297 27.3184 3.32335 28.2594C4.51374 29.2003 5.98558 29.7144 7.50297 29.7192H7.50376H8.09689C8.79243 29.7192 9.45948 29.4429 9.9513 28.9511C10.4431 28.4593 10.7194 27.7923 10.7194 27.0968V18.7933C10.7194 18.0978 10.4431 17.4307 9.9513 16.9389C9.45948 16.4471 8.79243 16.1708 8.09689 16.1708H7.50376ZM7.84689 26.8468H7.50376C6.4689 26.8468 5.47642 26.4357 4.74467 25.704C4.01292 24.9723 3.60182 23.9798 3.60182 22.945C3.60182 21.9102 4.01292 20.9178 4.74467 20.1861C5.47642 19.4544 6.4689 19.0433 7.50376 19.0433H7.84689V26.8468ZM27.6703 26.8468H27.3272V19.0433H27.6703C28.7052 19.0433 29.6976 19.4544 30.4294 20.1861C31.1612 20.9178 31.5722 21.9102 31.5722 22.945C31.5722 23.9798 31.1612 24.9723 30.4294 25.704C29.6976 26.4357 28.7052 26.8468 27.6703 26.8468Z" fill="#FFBF00" stroke="#FFBF00" stroke-width="0.5"/>
</svg>
