<svg width="34" height="26" viewBox="0 0 34 26" fill="none" xmlns="http://www.w3.org/2000/svg">
<path d="M33.45 1.93718H33.405V24.1752C33.4119 24.2414 33.4122 24.3082 33.4058 24.3744C33.4079 24.4141 33.4073 24.4539 33.4042 24.4936L33.3996 24.552L33.3695 24.6023C33.3493 24.636 33.3268 24.6682 33.302 24.6987C33.2638 24.7655 33.2181 24.8277 33.1656 24.884L33.1507 24.9L33.1333 24.9132C33.0955 24.9418 33.0558 24.9678 33.0145 24.9911C32.9631 25.0292 32.9072 25.0611 32.8482 25.0861M33.45 1.93718L32.7503 24.8561M33.45 1.93718L33.4713 1.7106C33.4757 1.66461 33.4762 1.61836 33.473 1.5723M33.45 1.93718L33.473 1.5723M32.8482 25.0861C32.848 25.0862 32.8478 25.0863 32.8477 25.0864L32.7503 24.8561M32.8482 25.0861C32.8483 25.0861 32.8484 25.086 32.8485 25.086L32.7503 24.8561M32.8482 25.0861C32.7312 25.136 32.6058 25.1631 32.4787 25.166L32.4731 25.1661V25.166H1.74936H1.74634L1.74634 25.166C1.61613 25.1644 1.48749 25.1374 1.36765 25.0865M32.7503 24.8561C32.6626 24.8935 32.5685 24.9139 32.4731 24.916H1.74936C1.65143 24.9148 1.55469 24.8945 1.4646 24.8561M1.36765 25.0865C1.36801 25.0867 1.36837 25.0868 1.36873 25.087L1.4646 24.8561M1.36765 25.0865C1.12432 24.9851 0.930893 24.7917 0.829508 24.5484C0.778596 24.4286 0.751593 24.2999 0.750018 24.1697L0.749982 24.1667L0.75 1.68718V1.61041L0.793085 1.54687C0.812598 1.5181 0.833995 1.49071 0.857117 1.46489C0.858189 1.43615 0.860943 1.40746 0.865381 1.37896L0.868732 1.35744L0.875754 1.33683C0.901562 1.26105 0.939073 1.18979 0.986924 1.12561L0.989795 1.12176L0.989795 1.09035L1.05264 1.01939C1.10681 0.958226 1.17103 0.906844 1.24249 0.867434C1.33067 0.806313 1.4329 0.768311 1.53976 0.757039C1.60465 0.748273 1.67037 0.747695 1.73537 0.755303H32.4519C32.5158 0.748781 32.5802 0.748781 32.6441 0.755303H32.7503H32.8284L32.8926 0.799752L32.9546 0.842661C33.0565 0.873277 33.1518 0.922965 33.2354 0.98924L33.2534 1.00353L33.2685 1.02086C33.3013 1.05844 33.3285 1.10042 33.3494 1.14549C33.3901 1.19815 33.4243 1.25562 33.4512 1.31664L33.4689 1.35676L33.4719 1.4005C33.4757 1.4577 33.4761 1.51507 33.473 1.5723M1.36765 25.0865C1.3673 25.0864 1.36694 25.0862 1.36659 25.0861L1.4646 24.8561M1.4646 24.8561C1.2815 24.78 1.13599 24.6345 1.05995 24.4514C1.02155 24.3614 1.00118 24.2646 1 24.1667V1.68718C1.03094 1.64156 1.06887 1.6011 1.1124 1.56729C1.10467 1.51764 1.10467 1.46708 1.1124 1.41743C1.1298 1.36635 1.15508 1.31831 1.18734 1.27506C1.23979 1.24508 1.23979 1.18514 1.23979 1.18514C1.27788 1.14213 1.32362 1.10656 1.37468 1.08023C1.4316 1.038 1.49896 1.0121 1.56951 1.0053C1.61922 0.998232 1.66968 0.998232 1.71938 1.0053H32.4656C32.5203 0.998781 32.5757 0.998781 32.6304 1.0053H32.7503L32.8477 1.07274C32.9325 1.09267 33.0118 1.13105 33.0801 1.18514C33.1031 1.21153 33.1209 1.24204 33.1325 1.27506C33.1694 1.3178 33.1997 1.36578 33.2224 1.41743C33.226 1.46982 33.226 1.52239 33.2224 1.57478L33.473 1.5723M18.1679 15.9322L18.168 15.9322L18.1704 15.93L20.9859 13.3892L30.1645 23.1674H4.15982L13.9243 13.4246L16.85 15.9332C17.0322 16.0928 17.2662 16.1808 17.5084 16.1808C17.7511 16.1808 17.9856 16.0924 18.1679 15.9322ZM2.74872 21.757V3.85686L12.3824 12.1168L2.74872 21.757ZM17.4817 13.8456L4.44899 2.6865H29.8663L17.4817 13.8456ZM31.4737 21.6368L22.5105 12.0354L31.4737 3.936V21.6368Z" fill="#FFBF00" stroke="#FFBF00" stroke-width="0.5"/>
</svg>
