<svg width="462" height="397" viewBox="0 0 462 397" fill="none" xmlns="http://www.w3.org/2000/svg">
<path d="M462 0H65V397H462V0Z" fill="#3675BD"/>
<path d="M223.04 144.269L303.39 68.5729L384.214 143.889L462 70.5674V16.7159L384.024 90.0375L303.295 14.8164L222.945 90.5124L142.215 15.1963L64.7148 88.1379V142.084L142.31 68.9528L223.04 144.269Z" fill="#26669B"/>
<path d="M223.04 263.464L303.39 187.768L384.214 262.989L462 189.762V135.911L384.024 209.233L303.295 134.011L222.945 209.612L142.215 134.391L64.7148 207.333V261.279L142.31 188.148L223.04 263.464Z" fill="#26669B"/>
<path d="M303.295 253.111L222.945 328.807L142.215 253.491L64.7148 327.003V380.379L142.31 307.343L223.04 382.564L303.39 306.868L384.119 382.184L462 308.862V255.011L384.024 328.427L303.295 253.111Z" fill="#26669B"/>
<path d="M259.13 181.024C259.51 179.885 260.365 178.935 261.599 178.555L268.818 176.275L250.867 170.292L256.851 188.242L259.13 181.024Z" fill="white"/>
<path d="M242.319 161.744C243.269 160.699 244.788 160.415 246.118 160.794L282.209 172.761C283.729 173.331 284.773 174.756 284.773 176.371C284.773 177.985 283.729 179.41 282.114 179.885L269.672 183.779L280.784 194.891C282.209 196.41 282.209 198.785 280.784 200.21C279.455 201.444 276.7 201.444 275.466 200.21L264.448 189.192L260.554 201.634C260.08 203.249 258.655 204.294 257.04 204.294C255.426 204.294 254.001 203.249 253.431 201.729L241.464 165.638C240.989 164.309 241.369 162.789 242.319 161.744Z" fill="white"/>
<path d="M358.666 269.922L344.894 237.345V124.989C344.894 122.044 342.52 119.67 339.576 119.67H187.424C184.48 119.67 182.105 122.044 182.105 124.989V237.25L168.334 269.827C167.669 271.442 167.764 273.341 168.809 274.861C169.758 276.285 171.468 277.235 173.272 277.235H353.917C355.721 277.235 357.336 276.285 358.381 274.861C359.236 273.436 359.331 271.537 358.666 269.922Z" fill="white"/>
<path d="M275.943 249.882H251.059C248.115 249.882 245.74 252.256 245.74 255.201C245.74 258.145 248.115 260.519 251.059 260.519H275.943C278.887 260.519 281.261 258.145 281.261 255.201C281.261 252.256 278.887 249.882 275.943 249.882Z" fill="white"/>
<path d="M193.883 236.206V125.559L303.865 235.541L193.883 236.206Z" fill="#CCCCCC"/>
<path d="M247.261 165.733C248.021 164.973 249.16 164.688 250.3 165.068L278.698 174.471C279.933 174.85 280.692 175.99 280.787 177.32C280.787 178.555 279.933 179.694 278.698 180.074L268.915 183.113L277.653 191.851C278.793 192.991 278.793 194.89 277.653 196.03C276.608 197.075 274.424 196.98 273.474 196.03L264.736 187.292L261.697 197.075C261.317 198.31 260.178 199.164 258.943 199.164C257.708 199.164 256.569 198.31 256.094 197.17L246.691 168.772C246.121 167.727 246.406 166.493 247.261 165.733Z" fill="#26669B"/>
<rect width="75" height="397" fill="#3675BD"/>
</svg>
