<svg width="463" height="398" viewBox="0 0 463 398" fill="none" xmlns="http://www.w3.org/2000/svg">
<path d="M463 0H65V398H463V0Z" fill="#007B3D"/>
<path d="M263.999 377.243C165.737 377.243 85.7559 297.262 85.7559 199C85.7559 100.738 165.737 20.7571 263.999 20.7571C362.261 20.7571 442.242 100.738 442.242 199C442.242 297.262 362.261 377.243 263.999 377.243ZM263.999 80.0762C198.396 80.0762 145.075 133.397 145.075 199C145.075 264.603 198.396 317.924 263.999 317.924C329.602 317.924 382.923 264.603 382.923 199C382.923 133.397 329.602 80.0762 263.999 80.0762Z" fill="#00632F"/>
<path d="M263.999 258.7C296.943 258.7 323.699 231.945 323.699 199C323.699 166.056 296.943 139.3 263.999 139.3C231.054 139.3 204.299 166.056 204.299 199C204.394 231.945 231.054 258.7 263.999 258.7Z" fill="#00632F"/>
<path d="M209.442 398V266.983C209.442 265.079 210.585 263.27 212.394 262.508C213.156 262.127 230.675 254.701 230.675 236.419V211.378C230.675 210.997 230.675 210.997 230.675 210.616H191.161L185.924 216.234C200.492 236.705 190.78 259.08 183.353 268.412C182.592 269.554 181.163 270.316 179.64 270.316C178.497 270.316 177.736 269.935 176.688 269.173C174.784 267.65 174.498 264.698 175.927 262.508C176.688 261.366 193.446 239.371 175.927 218.519C174.403 216.614 174.403 214.044 176.307 212.139L207.633 181.194C208.776 179.29 213.251 171.482 210.966 164.817C209.823 161.485 207.252 158.819 202.777 157.01L148.314 208.426C146.41 210.33 143.458 209.949 141.649 208.045C139.745 206.141 140.126 203.189 142.03 201.38L166.595 178.624V134.634L132.318 170.054C132.318 170.054 121.844 181.575 119.273 204.713V398H209.442Z" fill="white"/>
<path d="M175.545 92.5491V170.435L198.682 148.821C199.825 147.679 201.634 147.298 203.538 147.679C212.488 150.63 218.106 155.486 220.296 162.628C224.39 174.529 215.821 186.812 215.44 187.574C215.44 187.955 215.059 187.955 214.678 188.336L200.872 202.142H385.304V92.5491H175.545Z" fill="white"/>
<path d="M219.154 159.866C219.63 160.723 220.011 161.675 220.297 162.627C224.391 174.529 215.822 186.812 215.441 187.574C215.441 187.955 215.06 187.955 214.679 188.336L200.873 202.142H282.282L219.154 159.866Z" fill="#CCCCCC"/>
<path d="M373.499 108.069H327.51V116.829H373.499V108.069Z" fill="#007B3D"/>
<path d="M311.608 98.8337H309.037V106.07H311.608V98.8337Z" fill="#007B3D"/>
<path d="M311.608 111.592H309.037V118.829H311.608V111.592Z" fill="#007B3D"/>
<path d="M311.608 124.446H309.037V131.683H311.608V124.446Z" fill="#007B3D"/>
<path d="M311.608 137.3H309.037V144.537H311.608V137.3Z" fill="#007B3D"/>
<path d="M311.608 150.154H309.037V157.391H311.608V150.154Z" fill="#007B3D"/>
<path d="M311.608 162.913H309.037V170.15H311.608V162.913Z" fill="#007B3D"/>
<path d="M311.608 175.767H309.037V183.004H311.608V175.767Z" fill="#007B3D"/>
<path d="M311.608 188.622H309.037V195.858H311.608V188.622Z" fill="#007B3D"/>
<path d="M373.499 130.826H327.51V139.586H373.499V130.826Z" fill="#007B3D"/>
<path d="M373.499 153.487H327.51V162.247H373.499V153.487Z" fill="#007B3D"/>
<path d="M373.499 176.243H327.51V185.003H373.499V176.243Z" fill="#007B3D"/>
<path d="M204.298 135.11C212.554 135.11 219.247 128.418 219.247 120.162C219.247 111.906 212.554 105.213 204.298 105.213C196.042 105.213 189.35 111.906 189.35 120.162C189.35 128.418 196.042 135.11 204.298 135.11Z" fill="#007B3D"/>
<rect width="73" height="398" fill="#007B3D"/>
</svg>
