<svg width="463" height="397" viewBox="0 0 463 397" fill="none" xmlns="http://www.w3.org/2000/svg">
<g clip-path="url(#clip0)">
<path d="M463 0H66V397H463V0Z" fill="#DF832F"/>
<path d="M-33.2502 441.449L424.63 -16.431H237.337L-220.543 441.449H-33.2502Z" fill="#C67430"/>
<path d="M316.452 441.449L774.331 -16.431H587.134L129.254 441.449H316.452Z" fill="#C67430"/>
<path d="M679.166 259.95L687.144 258.715L689.044 250.832C704.43 187.388 712.313 134.961 716.207 102.099L718.771 80.4448L710.224 84.4338C633.198 75.1261 551.898 70.2823 468.319 70.2823C383.126 70.2823 300.117 75.2211 221.667 85.0036L211.979 80.4448L214.543 102.099C218.437 134.961 226.32 187.388 241.707 250.832L243.606 258.715L251.584 259.95C259.657 261.184 267.73 262.419 275.898 263.464V287.588H30.3848V311.806H900.366V287.588H654.852V263.464C663.02 262.419 671.093 261.184 679.166 259.95ZM667.389 237.25C646.4 240.385 625.125 242.949 603.565 245.038L686.1 142.464C681.921 169.057 675.937 201.159 667.389 237.25ZM465.375 251.782C441.916 251.782 418.742 251.212 395.663 250.072L465.375 210.372L535.088 250.072C512.008 251.212 488.834 251.782 465.375 251.782ZM666.345 128.503L573.363 244.089L489.879 196.506L571.274 150.062C605.37 145.123 637.567 137.81 666.345 128.503ZM465.375 182.449L419.027 156.046C434.318 156.996 449.799 157.47 465.375 157.47C480.951 157.47 496.527 156.996 511.724 156.046L465.375 182.449ZM359.572 150.062L440.966 196.506L357.387 244.089L264.501 128.503C293.184 137.81 325.38 145.123 359.572 150.062ZM659.696 105.139C604.895 123.184 536.512 133.251 465.375 133.251C394.903 133.251 327.09 123.374 272.479 105.613C335.543 99.535 401.171 96.3058 468.319 96.3058C533.853 96.3058 597.962 99.345 659.696 105.139ZM244.651 142.464L327.185 245.038C305.625 242.949 284.351 240.385 263.361 237.25C254.813 201.254 248.83 169.057 244.651 142.464ZM300.117 266.598C350.834 272.581 403.071 275.621 456.258 276.001V287.683H300.117V266.598ZM630.634 287.588H480.476V275.906C531.574 275.431 581.816 272.296 630.634 266.598V287.588Z" fill="white"/>
<path d="M900.366 307.057H30.3848V311.806H900.366V307.057Z" fill="#CCCCCC"/>
<path d="M149.673 257.67L158.316 266.313L150.813 286.543C149.958 288.822 147.774 290.152 145.589 290.152C144.925 290.152 144.26 290.057 143.69 289.867C140.841 288.822 139.321 285.593 140.366 282.649L149.673 257.67Z" fill="white"/>
<path d="M133.528 235.445L138.657 225.568C140.081 223.003 142.076 220.819 144.545 219.394C156.417 212.366 157.937 212.461 159.456 212.556L167.529 213.126C169.999 213.221 171.708 213.886 179.971 225.948C180.256 226.423 180.731 226.708 181.396 226.803L191.273 228.322C193.933 228.797 195.737 231.171 195.357 233.926C194.883 236.585 192.508 238.39 189.754 238.01L179.876 236.49C176.647 235.92 173.798 234.211 171.993 231.551C171.518 230.887 171.234 230.412 170.854 229.842L164.49 249.882L173.228 258.62C174.558 259.949 175.602 261.659 176.267 263.368L183.011 283.123C184.055 285.973 182.441 289.202 179.591 290.152C178.927 290.342 178.452 290.437 177.787 290.437C175.412 290.437 173.323 288.917 172.468 286.732L165.725 266.977C165.63 266.787 165.535 266.692 165.44 266.408L149.579 250.737C147.3 248.457 146.445 245.418 147.11 242.379L150.529 227.182C150.244 227.372 149.864 227.657 149.484 227.847C148.534 228.417 147.774 229.272 147.205 230.222L142.076 240.099C141.221 241.714 139.512 242.664 137.802 242.664C137.042 242.664 136.282 242.474 135.523 242.094C133.243 240.764 132.388 237.82 133.528 235.445Z" fill="white"/>
<path d="M175.915 200.46C176.562 194.515 172.268 189.172 166.323 188.525C160.379 187.878 155.035 192.172 154.388 198.117C153.741 204.061 158.036 209.405 163.98 210.052C169.925 210.699 175.268 206.404 175.915 200.46Z" fill="white"/>
</g>
<rect width="77" height="397" fill="#DF832F"/>
<defs>
<clipPath id="clip0">
<rect width="397" height="397" fill="white" transform="translate(66)"/>
</clipPath>
</defs>
</svg>
