<svg width="464" height="398" viewBox="0 0 464 398" fill="none" xmlns="http://www.w3.org/2000/svg">
<g clip-path="url(#clip0)">
<path d="M464 0H66V398H464V0Z" fill="#D12D37"/>
<path d="M199.016 -5.23682H66V139.586H199.016V-5.23682Z" fill="#BA2432"/>
<path d="M199.016 284.504H66V429.326H199.016V284.504Z" fill="#BA2432"/>
<path d="M464.002 -5.23682H332.033V139.586H464.002V-5.23682Z" fill="#BA2432"/>
<path d="M464.002 284.504H332.033V429.326H464.002V284.504Z" fill="#BA2432"/>
<path d="M332.033 139.681H199.018V284.503H332.033V139.681Z" fill="#BA2432"/>
<path d="M501.041 194.239L326.797 211.283V273.649H501.041V194.239Z" fill="white"/>
<path d="M289.663 163.866H156.457C152.172 163.866 148.744 160.438 148.744 156.153V88.6455C148.744 84.3609 152.172 80.9331 156.457 80.9331H289.663C293.947 80.9331 297.375 84.3609 297.375 88.6455V156.058C297.375 160.343 293.947 163.866 289.663 163.866Z" fill="white"/>
<path d="M282.993 96.0725H247.002V101.309H282.993V96.0725Z" fill="#D12D37"/>
<path d="M200.255 96.8337H164.264V118.828H200.255V96.8337Z" fill="#D12D37"/>
<path d="M282.993 108.355H247.002V113.592H282.993V108.355Z" fill="#D12D37"/>
<path d="M227.106 145.108H163.979V150.345H227.106V145.108Z" fill="#D12D37"/>
<path fill-rule="evenodd" clip-rule="evenodd" d="M126.652 210.806C123.414 210.33 120.272 212.425 119.51 215.567C118.844 219.09 121.034 223.184 124.176 224.517L224.914 270.221C228.913 272.03 235.959 273.553 240.339 273.553H240.771L326.699 254.626V224.327L277.092 196.238C273.759 194.334 267.475 193.477 263.762 194.525L210.632 208.902C208.918 209.378 207.585 210.425 206.728 211.949C205.966 213.377 205.776 215.186 206.347 216.995C207.489 220.899 212.155 224.041 216.154 223.756L259.572 220.804C261.762 220.613 263.666 222.327 263.857 224.517C263.952 226.707 262.333 228.612 260.143 228.802L216.725 231.754H215.678C209.584 231.754 203.49 228.136 200.348 222.803L126.652 210.806Z" fill="white"/>
<path d="M235.576 51.1304H208.439V100.833H235.576V51.1304Z" fill="#D12D37"/>
<path d="M230.437 95.5961H213.584V67.222C213.584 62.5564 217.393 58.7478 222.058 58.7478C226.724 58.7478 230.532 62.5564 230.532 67.222V95.5961H230.437Z" fill="white"/>
</g>
<rect width="74" height="398" fill="#D12D37"/>
<defs>
<clipPath id="clip0">
<rect width="398" height="398" fill="white" transform="translate(66)"/>
</clipPath>
</defs>
</svg>
