<svg width="99" height="77" viewBox="0 0 99 77" fill="none" xmlns="http://www.w3.org/2000/svg">
<path d="M54.7 58.3H34.3C33.9 58.3 33.5 58 33.5 57.5C33.5 57 33.8 56.7 34.3 56.7H51.7C53 56.7 54.2 55.8 54.3 54.5C54.4 53 53.3 51.7 51.8 51.7H21.8C21 51.7 20.6 51.3 20.4 51.1C19.9 50.4 19.9 49.2 20.3 48.2L24.6 37.5V37.4C24.6 37.3 24.7 37.2 24.7 37.1C24.7 37 24.7 36.9 24.7 36.9C24.7 36.8 24.7 36.7 24.7 36.7C24.7 36.6 24.7 36.5 24.7 36.4C24.7 36.3 24.7 36.2 24.7 36.2C24.7 36.1 24.7 36 24.6 36C24.6 35.9 24.6 35.8 24.5 35.8C24.5 35.7 24.4 35.6 24.4 35.6C24.4 35.5 24.3 35.5 24.3 35.4C24.3 35.3 24.2 35.2 24.1 35.2L24 35.1C24 35.1 24 35.1 23.9 35C23.8 34.9 23.8 34.9 23.7 34.8C23.6 34.8 23.6 34.7 23.5 34.7C23.4 34.7 23.4 34.6 23.3 34.6C23.2 34.6 23.1 34.5 23.1 34.5C23.1 34.5 23.1 34.5 23 34.5H22.9C22.8 34.5 22.7 34.4 22.6 34.4C22.5 34.4 22.4 34.4 22.4 34.4C22.3 34.4 22.3 34.4 22.2 34.4C22.1 34.4 22 34.4 21.9 34.4C21.8 34.4 21.8 34.4 21.7 34.4C21.6 34.4 21.5 34.4 21.4 34.5C21.3 34.5 21.3 34.5 21.2 34.6C21.1 34.6 21 34.7 21 34.7C20.9 34.7 20.9 34.8 20.8 34.8C20.7 34.8 20.6 34.9 20.6 35C20.6 35 20.5 35 20.5 35.1L0 53.1V68.1L6.09998 73.5C8.49998 75.6 11.6 76.8 14.8 76.8H44.5C45.8 76.8 47 75.9 47.1 74.6C47.2 73.1 46.1 71.8 44.6 71.8H34C33.6 71.8 33.2 71.5 33.2 71C33.2 70.6 33.5 70.2 34 70.2H51.4C52.7 70.2 53.9 69.3 54 68C54.1 66.5 53 65.2 51.5 65.2H34C33.6 65.2 33.2 64.9 33.2 64.4C33.2 64 33.5 63.6 34 63.6H54.6C56.1 63.6 57.2 62.3 57.1 60.8C57.2 59.2 56 58.3 54.7 58.3Z" fill="white"/>
<path d="M48.2996 13.5L52.2996 10.1L56.7996 8.09999L58.7996 12.4L56.2996 13.5C55.2996 14 54.7996 15.1 55.2996 16.1C55.5996 16.8 56.3996 17.3 57.0996 17.3C57.1996 17.3 57.1996 17.3 57.2996 17.3L54.5996 18.6C53.0996 19.3 52.3996 21.1 53.0996 22.6C53.5996 23.7 54.6996 24.4 55.7996 24.4C56.1996 24.4 56.5996 24.3 56.9996 24.1L74.1996 16.2C75.6996 15.5 76.3996 13.7 75.6996 12.2C74.9996 10.7 73.1996 10 71.6996 10.7L68.2996 12.2C68.6996 11.6 68.8996 10.9 68.5996 10.1C68.0996 9.09999 66.9996 8.59999 65.9996 9.09999L64.2996 9.79999L59.7996 0L49.0996 4.89999L44.4996 8.89999C43.1996 9.99999 43.0996 11.9 44.1996 13.1C45.1996 14.4 47.0996 14.5 48.2996 13.5Z" fill="white"/>
<path d="M98.3994 55L82.1994 19.4C81.4994 17.9 79.7994 17.3 78.2994 17.9L55.4995 28.2C53.9995 28.9 53.3995 30.6 53.9995 32.1L70.0994 67.7C70.7994 69.2 72.4995 69.8 73.9995 69.2L96.7994 58.9C98.3994 58.2 98.9994 56.5 98.3994 55ZM85.2994 45.1L71.8994 51.2C71.1994 51.5 70.2994 51.2 69.8994 50.5L62.8994 35.2C62.5994 34.5 62.8994 33.6 63.5994 33.2L76.9995 27.1C77.6995 26.8 78.5995 27.1 78.9995 27.8L85.9995 43.1C86.3995 43.9 86.0994 44.8 85.2994 45.1Z" fill="white"/>
<path d="M44.7992 27.6C46.1992 27 46.7992 25.4 46.2992 24.1L44.7992 20.4C44.6992 20.2 44.4992 20 44.1992 19.8C43.6992 19.6 43.0992 19.8 42.7992 20.4L41.2992 24.1C40.9992 24.7 40.9992 25.5 41.2992 26.2C41.7992 27.5 43.3992 28.2 44.7992 27.6Z" fill="white"/>
<path d="M45.7992 44.6C48.0992 43.5 49.0993 40.7 47.9993 38.4L44.9993 32.1C44.8993 31.8 44.5992 31.6 44.2992 31.4C43.5992 31.1 42.7992 31.4 42.3992 32.1L39.3992 38.4C38.7992 39.6 38.7992 41.1 39.3992 42.4C40.5992 44.7 43.3992 45.7 45.7992 44.6Z" fill="white"/>
</svg>
