<svg width="87" height="88" viewBox="0 0 87 88" fill="none" xmlns="http://www.w3.org/2000/svg">
<path d="M85.6727 43.6C85.2727 42.2 84.2727 41.1 82.8727 40.6C81.0727 39.8 78.6727 40 76.2727 40.6C76.6727 38.6 76.8727 36.5 76.8727 34.4C76.8727 15.5 61.9726 0 43.5727 0C25.2727 0 10.2727 15.4 10.2727 34.4C10.2727 36.6 10.4727 38.7 10.8727 40.8C8.17266 40.1 5.37266 39.7 3.37266 40.6C1.97266 41.2 1.07265 42.3 0.572652 43.6C-1.12735 49.1 0.972659 55.6 6.67266 63C9.97266 67.2 13.4727 70.5 14.6727 71.6C16.2727 74.7 24.0727 87.4 43.0727 87.4C61.9726 87.4 69.8727 74.7 71.4726 71.6C72.7727 70.5 76.2727 67.2 79.4726 63C85.2727 55.6 87.3727 49.1 85.6727 43.6ZM6.17266 46C7.57266 46 10.6727 46.9 13.6727 48.1L13.9727 62.3C9.77266 57.6 5.17266 51 6.17266 46ZM55.9727 74.4C55.6727 74.5 49.5727 76.5 43.1727 76.5C36.1727 76.5 31.2727 74.4 30.9727 74.3C29.9727 73.9 29.4727 72.7 29.9727 71.7C30.3727 70.7 31.5727 70.2 32.5727 70.6C32.5727 70.6 36.9727 72.4 43.1727 72.4C48.8727 72.4 54.6727 70.5 54.6727 70.5C55.6727 70.2 56.8727 70.7 57.1727 71.8C57.5727 72.9 56.9727 74 55.9727 74.4ZM55.2727 67.3H31.7727C30.6727 67.3 29.7727 66.4 29.7727 65.3C29.7727 64.2 30.6727 63.3 31.7727 63.3H55.2727C56.3727 63.3 57.2727 64.2 57.2727 65.3C57.2727 66.4 56.3727 67.3 55.2727 67.3ZM30.9727 55.6C31.1727 55.5 36.0727 53.4 43.1727 53.4C49.5727 53.4 55.6727 55.4 55.9727 55.5C56.9727 55.8 57.5727 57 57.2727 58C56.9727 58.8 56.1727 59.4 55.3727 59.4C55.1727 59.4 54.9727 59.4 54.7727 59.3C54.6727 59.3 48.9727 57.4 43.2727 57.4C37.0727 57.4 32.7727 59.2 32.6727 59.2C31.6727 59.6 30.4727 59.2 30.0727 58.1C29.4727 57.2 29.9727 56 30.9727 55.6ZM69.5727 42.9C69.3727 43 69.2727 43 69.0727 43.1C63.0727 42.4 58.1727 40 53.8727 37.9C49.9727 36 46.5727 34.3 43.0727 34.3C39.5727 34.3 36.1727 36 32.2727 37.9C28.0727 40 23.3727 42.3 17.4727 43C16.5727 40.3 16.1727 37.3 16.1727 34.3C16.1727 28.4 17.8727 22.9 20.8727 18.4C30.4727 19.5 54.2727 21.4 62.6727 14.2C67.6727 19.3 70.7727 26.5 70.7727 34.3C70.7727 37.3 70.3727 40.2 69.5727 42.9ZM72.2727 62.4L72.5727 48.1C75.5727 46.8 78.6727 45.9 80.0727 46C81.0727 51 76.5727 57.6 72.2727 62.4Z" fill="white"/>
</svg>
