<svg width="99" height="85" viewBox="0 0 99 85" fill="none" xmlns="http://www.w3.org/2000/svg">
<path d="M95.9992 0H40.1992C38.4992 0 37.1992 1.3 37.1992 3V16.5C37.1992 18.2 38.4992 19.5 40.1992 19.5H51.5992C53.2992 19.5 54.5992 18.2 54.5992 16.5V12.7H95.9992C97.6992 12.7 98.9992 11.4 98.9992 9.70001V3C98.9992 1.3 97.6992 0 95.9992 0Z" fill="white"/>
<path d="M50.4995 36.2999C51.8995 35.5999 52.3995 33.7999 51.5995 32.4999L49.8995 29.2999C49.7995 29.1999 49.6995 28.9999 49.5995 28.9999C49.1995 28.7999 48.6995 28.8999 48.4995 29.2999L46.7995 32.4999C46.3995 33.2999 46.2995 34.2999 46.7995 35.1999C47.3995 36.5999 49.0995 36.9999 50.4995 36.2999Z" fill="white"/>
<path d="M54.8 48.2999C55.2 46.5999 54.9 44.7999 53.7 43.2999C51.7 40.7999 48 40.3999 45.5 42.3999C44.5 43.1999 43.8 44.3999 43.5 45.5999C42.7 45.1999 41.8 44.8999 40.9 44.8999C39.3 44.8999 37.9 45.5999 36.9 46.6999C35.7 45.7999 34.1 45.3999 32.4 45.5999C29.2 46.1999 27.1 49.1999 27.7 52.2999C27.9 53.3999 28.4 54.2999 29 55.0999H51.8C53.6 55.0999 55.4 55.8999 56.6 57.1999C56.7 57.2999 56.9 57.4999 57 57.6999C57.5 57.4999 58 57.2999 58.4 56.8999C60.5 55.1999 60.8 52.0999 59.2 49.9999C58 48.6999 56.4 48.0999 54.8 48.2999Z" fill="white"/>
<path d="M44.5995 29.5C45.9995 28.8 46.4995 27 45.6995 25.7L43.9995 22.5C43.8995 22.4 43.7995 22.2 43.6995 22.2C43.2995 22 42.7995 22.1 42.5995 22.5L40.7995 25.7C40.3995 26.5 40.2995 27.5 40.7995 28.4C41.4995 29.8 43.2995 30.3 44.5995 29.5Z" fill="white"/>
<path d="M40.601 39.9C42.001 39.2 42.501 37.4 41.701 36.1L40.001 32.9C39.901 32.8 39.801 32.6 39.701 32.6C39.301 32.4 38.801 32.5 38.601 32.9L36.901 36.1C36.501 36.9 36.401 37.9 36.901 38.8C37.601 40.2 39.301 40.7 40.601 39.9Z" fill="white"/>
<path d="M54.7 65.5999H34.3C33.9 65.5999 33.5 65.2999 33.5 64.7999C33.5 64.3999 33.8 63.9999 34.3 63.9999H51.7C53 63.9999 54.2 63.0999 54.3 61.7999C54.5 60.2999 53.3 58.9999 51.8 58.9999H21.8C21 58.9999 20.6 58.5999 20.4 58.3999C19.9 57.6999 19.9 56.4999 20.3 55.4999L24.6 44.7999V44.6999C24.6 44.5999 24.7 44.4999 24.7 44.3999C24.7 44.2999 24.7 44.1999 24.7 44.1999C24.7 44.0999 24.7 43.9999 24.7 43.9999C24.7 43.8999 24.7 43.7999 24.7 43.7999C24.7 43.6999 24.7 43.5999 24.7 43.5999C24.7 43.4999 24.7 43.3999 24.6 43.3999C24.6 43.2999 24.6 43.1999 24.5 43.1999C24.5 43.0999 24.4 42.9999 24.4 42.9999C24.4 42.8999 24.3 42.8999 24.3 42.7999C24.3 42.6999 24.2 42.6999 24.1 42.5999L24 42.4999C24 42.4999 24 42.4999 23.9 42.3999C23.8 42.2999 23.8 42.2999 23.7 42.1999C23.6 42.1999 23.6 42.0999 23.5 42.0999C23.4 42.0999 23.4 41.9999 23.3 41.9999C23.2 41.9999 23.1 41.8999 23.1 41.8999C23.1 41.8999 23.1 41.8999 23 41.8999H22.9C22.8 41.8999 22.7 41.7999 22.6 41.7999C22.5 41.7999 22.4 41.7999 22.4 41.7999C22.3 41.7999 22.2 41.7999 22.2 41.7999C22.1 41.7999 22 41.7999 21.9 41.7999C21.8 41.7999 21.8 41.7999 21.7 41.7999C21.6 41.7999 21.5 41.7999 21.4 41.8999C21.3 41.8999 21.3 41.8999 21.2 41.9999C21.1 41.9999 21 42.0999 21 42.0999C20.9 42.0999 20.9 42.1999 20.8 42.1999C20.7 42.1999 20.6 42.2999 20.6 42.3999C20.6 42.3999 20.5 42.3999 20.5 42.4999L0 60.4999V75.4999L6.10001 80.8999C8.50001 82.9999 11.6 84.1999 14.8 84.1999H44.5C45.8 84.1999 47 83.2999 47.1 81.9999C47.2 80.4999 46.1 79.1999 44.6 79.1999H34C33.6 79.1999 33.2 78.8999 33.2 78.3999C33.2 77.9999 33.5 77.5999 34 77.5999H51.4C52.7 77.5999 53.9 76.6999 54 75.3999C54.2 73.8999 53 72.5999 51.5 72.5999H34C33.6 72.5999 33.2 72.2999 33.2 71.7999C33.2 71.3999 33.5 70.9999 34 70.9999H54.8C56.3 70.9999 57.4 69.6999 57.3 68.1999C57.2 66.5999 56 65.5999 54.7 65.5999Z" fill="white"/>
</svg>
