<svg width="99" height="100" viewBox="0 0 99 100" fill="none" xmlns="http://www.w3.org/2000/svg">
<path d="M23.4992 74.8H19.7992L20.6992 74C21.8992 73 24.3992 70.6 24.3992 68.2C24.3992 65.8 22.3992 64.6 19.6992 64.6C19.0992 64.6 18.1992 64.7 16.8992 65C16.3992 65.1 16.0992 65.6 16.0992 66.1V66.3C16.0992 67 16.7992 67.5 17.4992 67.3C18.0992 67.1 18.7992 67 19.3992 67C20.3992 67 21.0992 67.5 21.0992 68.5C21.0992 70.1 18.4992 72.3 16.0992 74.3C15.8992 74.5 15.6992 74.8 15.6992 75.1V75.8C15.6992 76.4 16.1992 76.9 16.7992 76.9H23.3992C23.9992 76.9 24.4992 76.4 24.4992 75.8V75.7C24.5992 75.3 24.0992 74.8 23.4992 74.8Z" fill="white"/>
<path d="M39.6008 67.7999C38.7008 67.7999 37.8008 68.0999 37.1008 68.6999C36.7008 69.0999 36.1008 68.9999 35.7008 68.5999C35.1008 68.0999 34.4008 67.7999 33.5008 67.7999C32.1008 67.7999 30.8008 68.3999 30.2008 69.6999V69.0999C30.2008 68.4999 29.7008 67.9999 29.1008 67.9999H28.4008C27.8008 67.9999 27.3008 68.4999 27.3008 69.0999V75.9999C27.3008 76.5999 27.8008 77.0999 28.4008 77.0999H29.3008C29.9008 77.0999 30.4008 76.5999 30.4008 75.9999V73.1999C30.4008 71.1999 31.1008 70.2999 32.2008 70.2999C33.1008 70.2999 33.5008 71.0999 33.5008 72.0999V75.8999C33.5008 76.4999 34.0008 76.9999 34.6008 76.9999H35.5008C36.1008 76.9999 36.6008 76.4999 36.6008 75.8999V73.0999C36.6008 71.0999 37.3008 70.1999 38.4008 70.1999C39.3008 70.1999 39.7008 70.9999 39.7008 71.9999V75.7999C39.7008 76.3999 40.2008 76.8999 40.8008 76.8999H41.7008C42.3008 76.8999 42.8008 76.3999 42.8008 75.7999V71.4999C42.8008 69.2999 42.2008 67.7999 39.6008 67.7999Z" fill="white"/>
<path d="M64.8004 69.4C65.3004 68.9 65.6004 68.1 65.6004 67.4V57.8C65.6004 56.7 64.7004 55.8 63.6004 55.8C62.5004 55.8 61.6004 56.7 61.6004 57.8V62.5L48.1004 49H52.8004C53.9004 49 54.8004 48.1 54.8004 47C54.8004 45.9 53.9004 45 52.8004 45H43.2004C42.4004 45 41.7004 45.3 41.2004 45.8C40.7004 46.3 40.4004 47 40.4004 47.8V57.4C40.4004 58.5 41.3004 59.4 42.4004 59.4C42.9004 59.4 43.4004 59.2 43.8004 58.8C44.2004 58.4 44.4004 57.9 44.4004 57.4V52.7L57.9004 66.2H53.2004C52.7004 66.2 52.2004 66.4 51.8004 66.8C51.4004 67.2 51.2004 67.7 51.2004 68.2C51.2004 69.3 52.1004 70.2 53.2004 70.2H62.8004C63.5004 70.2 64.2004 69.9 64.8004 69.4Z" fill="white"/>
<path d="M18.3008 12C21.6008 12 24.3008 9.3 24.3008 6C24.3008 2.7 21.6008 0 18.3008 0C15.0008 0 12.3008 2.7 12.3008 6C12.3008 9.4 15.0008 12 18.3008 12Z" fill="white"/>
<path d="M30.6 33.3999L30.7 42.8999C30.7 44.5999 32 45.8999 33.7 45.8999C35.4 45.8999 36.7 44.5999 36.7 42.8999L36.6 33.3999C36.6 23.9999 28.9 16.2999 19.4 16.2999H17.2C7.70001 16.2999 0 23.9999 0 33.3999V42.6999C0 44.2999 1.19999 45.7999 2.79999 45.8999C4.49999 45.9999 6 44.5999 6 42.8999V33.3999C6 29.8999 7.59998 26.8999 10.1 24.7999V42.3999C10.1 44.1999 11.6 45.5999 13.3 45.5999H26.6V24.8999C29 26.8999 30.6 29.9999 30.6 33.3999Z" fill="white"/>
<path d="M80.3008 65.2C83.6008 65.2 86.3008 62.5 86.3008 59.2C86.3008 55.9 83.6008 53.2 80.3008 53.2C77.0008 53.2 74.3008 55.9 74.3008 59.2C74.3008 62.5 77.0008 65.2 80.3008 65.2Z" fill="white"/>
<path d="M98.6 86.4999C98.6 77.0999 90.9 69.3999 81.4 69.3999H79.2C69.7 69.3999 62 77.0999 62 86.4999V95.7999C62 97.3999 63.2 98.8999 64.8 98.9999C66.5 99.0999 68 97.6999 68 95.9999V86.4999C68 82.9999 69.6 79.9999 72.1 77.8999V95.4999C72.1 97.2999 73.6 98.6999 75.3 98.6999H88.6V77.9999C91 79.9999 92.6 83.0999 92.6 86.4999L92.7 95.9999C92.7 97.6999 94 98.9999 95.7 98.9999C97.4 98.9999 98.7 97.6999 98.7 95.9999L98.6 86.4999Z" fill="white"/>
</svg>
