<svg width="521" height="596" viewBox="0 0 521 596" fill="none" xmlns="http://www.w3.org/2000/svg">
<path d="M96.1018 114.098C108.075 110.89 115.181 98.583 111.973 86.6097C108.765 74.6364 96.4576 67.5307 84.4843 70.7388C72.511 73.9469 65.4054 86.2539 68.6135 98.2272C71.8216 110.201 84.1285 117.306 96.1018 114.098Z" stroke="#8A1539" stroke-width="3" stroke-miterlimit="10" stroke-linecap="round" stroke-linejoin="round"/>
<path d="M85.1621 71.1459L96.6724 114.022" stroke="#8A1539" stroke-width="3" stroke-miterlimit="10" stroke-linecap="round" stroke-linejoin="round"/>
<path d="M111.923 86.6847L68.7598 98.4827" stroke="#8A1539" stroke-width="3" stroke-miterlimit="10" stroke-linecap="round" stroke-linejoin="round"/>
<path d="M110.485 102.223C108.758 101.936 106.744 101.936 105.017 101.936C101.276 101.936 97.5355 102.223 93.7947 103.087C90.3416 103.95 86.8886 105.101 83.7232 106.828C81.4212 107.979 79.4069 109.417 77.3926 110.856" stroke="#8A1539" stroke-width="3" stroke-miterlimit="10" stroke-linecap="round" stroke-linejoin="round"/>
<path d="M70.4863 82.3685C73.0761 82.6562 75.3782 82.6563 77.968 82.6563C81.4211 82.6563 84.5864 82.0807 88.0395 81.2175C91.7803 80.3542 95.5211 78.9154 98.9742 76.6134C100.413 75.7501 101.564 74.8868 103.003 74.0236" stroke="#8A1539" stroke-width="3" stroke-miterlimit="10" stroke-linecap="round" stroke-linejoin="round"/>
<path d="M104.155 110.281C104.443 107.403 104.73 104.814 105.018 102.224C105.306 97.6196 104.73 93.3033 103.867 89.2747C103.004 84.9583 101.277 80.9298 98.9752 76.9012C97.5364 74.8869 96.0976 72.8726 94.3711 70.8583" stroke="#8A1539" stroke-width="3" stroke-miterlimit="10" stroke-linecap="round" stroke-linejoin="round"/>
<path d="M78.5449 73.4478C77.9694 76.6131 77.6816 79.4907 77.6816 82.3682C77.6816 86.9723 77.9694 91.2887 78.8327 95.3173C79.6959 99.0581 81.1347 102.799 83.4368 106.54C85.1633 109.417 87.1776 112.007 89.7674 114.597" stroke="#8A1539" stroke-width="3" stroke-miterlimit="10" stroke-linecap="round" stroke-linejoin="round"/>
<path d="M75.3794 150.279L134.369 134.452C137.247 133.589 138.974 130.711 138.398 127.834L113.939 36.6151C113.075 33.7375 110.198 32.011 107.32 32.5865L48.3303 48.4131C45.4527 49.2763 43.7262 52.1539 44.3017 55.0315L68.761 146.25C69.6242 149.416 72.5018 151.142 75.3794 150.279Z" stroke="#8A1539" stroke-width="3" stroke-miterlimit="10" stroke-linecap="round" stroke-linejoin="round"/>
<path d="M82.3697 137.559L83.2547 137.322L82.4615 134.362L83.6415 134.046C85.0249 133.675 86.0237 132.765 85.6095 131.218L85.5986 131.178C85.1925 129.662 83.8795 129.36 82.4859 129.733L80.421 130.286L82.3697 137.559ZM82.2735 133.66L81.4967 130.761L82.7377 130.429C83.7244 130.164 84.4383 130.387 84.7136 131.415L84.7245 131.455C84.9752 132.391 84.552 133.05 83.5145 133.328L82.2735 133.66ZM89.5266 135.74C90.3098 135.53 90.7171 135.137 90.9802 134.533L91.1601 135.204L92.0044 134.978L91.0641 131.469C90.6662 129.983 89.6288 129.814 88.6116 130.087C87.5842 130.362 86.7378 131.069 86.9502 132.309L87.7945 132.083C87.7014 131.41 88.0266 130.996 88.759 130.8C89.5727 130.582 89.9936 130.85 90.2198 131.695L90.3234 132.081L89.5605 132.286C88.1974 132.651 87.0071 133.417 87.3369 134.648C87.6286 135.736 88.5399 136.004 89.5266 135.74ZM89.4281 135.047C88.6855 135.246 88.3284 134.971 88.1812 134.421C87.9714 133.638 88.6837 133.164 89.7518 132.878L90.4842 132.681L90.6614 133.343C90.8821 134.167 90.3232 134.807 89.4281 135.047ZM95.3353 134.184C96.6271 133.837 97.1139 133.009 96.8549 132.043C96.5524 130.914 95.7139 130.877 94.5608 130.968C93.538 131.056 93.2217 130.934 93.0936 130.456C92.971 129.998 93.2859 129.587 93.8963 129.423C94.5676 129.243 94.9613 129.41 95.2387 129.958L96.0524 129.739C95.602 128.628 94.6745 128.462 93.7184 128.719C92.8843 128.942 92.0542 129.71 92.3186 130.696C92.5666 131.622 93.1381 131.883 94.5896 131.767C95.4544 131.699 95.9205 131.77 96.0704 132.329C96.2231 132.899 95.9406 133.269 95.137 133.484C94.2826 133.713 93.8406 133.407 93.6106 132.792L92.7866 133.013C93.1291 134.088 94.0637 134.524 95.3353 134.184ZM100.223 132.874C101.514 132.528 102.001 131.7 101.742 130.733C101.44 129.604 100.601 129.567 99.4482 129.658C98.4253 129.747 98.1091 129.625 97.981 129.146C97.8583 128.689 98.1733 128.277 98.7836 128.114C99.455 127.934 99.8486 128.101 100.126 128.648L100.94 128.43C100.489 127.319 99.5619 127.153 98.6057 127.409C97.7716 127.633 96.9415 128.4 97.2059 129.387C97.4539 130.312 98.0254 130.574 99.477 130.457C100.342 130.389 100.808 130.46 100.958 131.02C101.11 131.59 100.828 131.96 100.024 132.175C99.1699 132.404 98.728 132.097 98.498 131.483L97.674 131.704C98.0165 132.778 98.9511 133.215 100.223 132.874ZM103.934 133.766L104.778 133.54L104.047 130.814C104.494 131.261 105.232 131.532 106.107 131.297C107.572 130.905 108.228 129.53 107.792 127.902L107.77 127.821C107.326 126.163 106.026 125.421 104.632 125.794C103.859 126.001 103.262 126.663 103.096 127.263L102.856 126.368L102.012 126.595L103.934 133.766ZM105.837 130.617C104.8 130.895 103.916 130.445 103.551 129.082L103.529 129.001C103.164 127.638 103.742 126.785 104.729 126.521C105.624 126.281 106.546 126.753 106.906 128.096L106.928 128.177C107.274 129.469 106.895 130.334 105.837 130.617ZM111.869 129.001C110.791 129.29 109.917 128.674 109.593 127.463L109.571 127.382C109.244 126.161 109.703 125.188 110.771 124.902C111.829 124.618 112.723 125.229 113.052 126.46L113.072 126.531C113.393 127.732 112.937 128.715 111.869 129.001ZM112.047 129.706C113.563 129.3 114.374 127.894 113.944 126.287L113.922 126.205C113.494 124.608 112.088 123.797 110.583 124.2C109.077 124.603 108.268 126.019 108.696 127.616L108.718 127.698C109.135 129.254 110.531 130.112 112.047 129.706ZM115.954 128.561L116.798 128.335L116.016 125.415C115.665 124.103 116.256 123.585 117.311 123.248L117.098 122.454C116.15 122.741 115.804 123.281 115.629 123.971L115.373 123.015L114.529 123.241L115.954 128.561ZM121.465 127.161C121.81 127.068 122 126.963 122.157 126.855L121.966 126.143C121.802 126.264 121.609 126.359 121.345 126.43C120.918 126.544 120.616 126.352 120.477 125.834L119.621 122.64L120.862 122.307L120.671 121.595L119.43 121.928L119.106 120.717L118.262 120.943L118.586 122.154L117.823 122.358L118.014 123.07L118.777 122.866L119.654 126.141C119.878 126.975 120.498 127.42 121.465 127.161Z" fill="#8A1539"/>
<path d="M216.161 1.99998L215.373 165.158L328.174 165.703L328.961 2.54462L216.161 1.99998Z" stroke="#8A1539" stroke-width="3" stroke-miterlimit="10" stroke-linecap="round" stroke-linejoin="round"/>
<path d="M248.321 50.1398H226.451V44.0969C226.451 40.3561 229.329 37.4785 233.07 37.4785H241.702C245.443 37.4785 248.321 40.3561 248.321 44.0969V50.1398V50.1398Z" stroke="#8A1539" stroke-width="3" stroke-miterlimit="10" stroke-linecap="round" stroke-linejoin="round"/>
<path d="M237.673 34.0257C242.759 34.0257 246.881 29.903 246.881 24.8175C246.881 19.7319 242.759 15.6093 237.673 15.6093C232.587 15.6093 228.465 19.7319 228.465 24.8175C228.465 29.903 232.587 34.0257 237.673 34.0257Z" stroke="#8A1539" stroke-width="3" stroke-miterlimit="10" stroke-linecap="round" stroke-linejoin="round"/>
<path d="M270.025 38.6973H271.179L273.919 30.7645H273.009L270.646 37.7653L268.283 30.7645H267.329L270.025 38.6973ZM275.101 38.6973H276.022V32.8947H275.101V38.6973ZM275.545 31.6854C275.878 31.6854 276.155 31.408 276.155 31.0751C276.155 30.7423 275.878 30.4649 275.545 30.4649C275.212 30.4649 274.935 30.7423 274.935 31.0751C274.935 31.408 275.212 31.6854 275.545 31.6854ZM279.704 38.7971C281.113 38.7971 281.834 38.0871 281.834 37.033C281.834 35.8015 280.991 35.5352 279.793 35.3134C278.728 35.1247 278.439 34.9139 278.439 34.3925C278.439 33.8932 278.872 33.5604 279.538 33.5604C280.27 33.5604 280.625 33.8377 280.758 34.4701H281.646C281.49 33.2164 280.592 32.7948 279.549 32.7948C278.639 32.7948 277.585 33.3496 277.585 34.4258C277.585 35.4354 278.095 35.857 279.604 36.1344C280.503 36.3008 280.958 36.5005 280.958 37.1107C280.958 37.732 280.57 38.0316 279.693 38.0316C278.761 38.0316 278.395 37.5989 278.328 36.911H277.43C277.485 38.0981 278.317 38.7971 279.704 38.7971ZM284.691 38.7971C285.545 38.7971 286.067 38.5087 286.499 37.965V38.6973H287.42V34.8696C287.42 33.2497 286.411 32.7948 285.301 32.7948C284.181 32.7948 283.127 33.283 283.005 34.6033H283.925C284.014 33.8932 284.458 33.5604 285.257 33.5604C286.144 33.5604 286.499 33.9487 286.499 34.8696V35.2912H285.667C284.181 35.2912 282.761 35.746 282.761 37.0885C282.761 38.2757 283.615 38.7971 284.691 38.7971ZM284.78 38.0649C283.97 38.0649 283.681 37.6876 283.681 37.0885C283.681 36.2342 284.536 35.9458 285.701 35.9458H286.499V36.6669C286.499 37.5656 285.756 38.0649 284.78 38.0649Z" fill="#8A1539"/>
<path d="M229.328 75.7501H312.202" stroke="#8A1539" stroke-width="3" stroke-miterlimit="10" stroke-linecap="round" stroke-linejoin="round"/>
<path d="M229.328 88.4115H312.202" stroke="#8A1539" stroke-width="3" stroke-miterlimit="10" stroke-linecap="round" stroke-linejoin="round"/>
<path d="M229.328 101.073H312.202" stroke="#8A1539" stroke-width="3" stroke-miterlimit="10" stroke-linecap="round" stroke-linejoin="round"/>
<path d="M229.328 113.734H312.202" stroke="#8A1539" stroke-width="3" stroke-miterlimit="10" stroke-linecap="round" stroke-linejoin="round"/>
<path d="M229.328 126.395H312.202" stroke="#8A1539" stroke-width="3" stroke-miterlimit="10" stroke-linecap="round" stroke-linejoin="round"/>
<path d="M229.328 139.057H312.202" stroke="#8A1539" stroke-width="3" stroke-miterlimit="10" stroke-linecap="round" stroke-linejoin="round"/>
<path d="M415.42 31.3087L374.551 180.934L477.817 209.141L518.687 59.5151L415.42 31.3087Z" stroke="#8A1539" stroke-width="3" stroke-miterlimit="10" stroke-linecap="round" stroke-linejoin="round"/>
<path d="M426.308 53.857L427.193 54.0941L428.948 47.5433L431.064 48.1102L431.258 47.388L426.141 46.017L425.948 46.7393L428.063 47.3062L426.308 53.857ZM431.841 55.4376C433.041 55.7592 434.076 55.4369 434.546 54.4178L433.701 54.1916C433.423 54.7821 432.863 54.9592 432.039 54.7384C430.951 54.4468 430.551 53.6201 430.835 52.3987L434.842 53.4726L434.916 53.1979C435.426 51.2957 434.465 50.2425 433.234 49.9127C431.769 49.5202 430.442 50.3639 430.012 51.9711L429.99 52.0524C429.551 53.6902 430.336 55.0342 431.841 55.4376ZM431.048 51.7254C431.444 50.8175 432.182 50.3829 433.046 50.6146C433.921 50.849 434.373 51.439 434.16 52.5594L431.048 51.7254ZM437.143 56.8582C438.435 57.2044 439.271 56.7305 439.53 55.7642C439.832 54.6351 439.125 54.1838 438.08 53.686C437.15 53.2514 436.938 52.9873 437.066 52.5092C437.188 52.0515 437.667 51.8526 438.277 52.0161C438.948 52.196 439.206 52.5375 439.173 53.15L439.986 53.3681C440.152 52.1805 439.432 51.5732 438.475 51.317C437.641 51.0935 436.539 51.3432 436.274 52.3299C436.026 53.2555 436.391 53.7674 437.706 54.3924C438.489 54.7657 438.857 55.0606 438.707 55.6201C438.554 56.1897 438.125 56.3689 437.321 56.1536C436.467 55.9247 436.237 55.438 436.345 54.791L435.521 54.5703C435.281 55.6723 435.872 56.5175 437.143 56.8582ZM442.006 58.1392C442.351 58.2319 442.568 58.2355 442.758 58.2208L442.949 57.5088C442.746 57.5309 442.532 57.5171 442.268 57.4462C441.84 57.3318 441.675 57.0148 441.814 56.496L442.669 53.302L443.91 53.6345L444.101 52.9224L442.86 52.5899L443.184 51.3795L442.34 51.1532L442.016 52.3637L441.253 52.1593L441.062 52.8714L441.825 53.0758L440.947 56.3512C440.724 57.1853 441.039 57.8803 442.006 58.1392Z" fill="#8A1539"/>
<path d="M395.076 156.034L471.044 176.177" stroke="#8A1539" stroke-width="3" stroke-miterlimit="10" stroke-linecap="round" stroke-linejoin="round"/>
<path d="M391.91 167.545L467.878 187.976" stroke="#8A1539" stroke-width="3" stroke-miterlimit="10" stroke-linecap="round" stroke-linejoin="round"/>
<path d="M423.563 143.373L422.412 142.798C420.397 142.222 418.959 139.92 419.534 137.906L429.318 101.361L438.526 103.663L428.742 140.208C427.879 142.51 425.577 143.949 423.563 143.373Z" stroke="#8A1539" stroke-width="3" stroke-miterlimit="10" stroke-linecap="round" stroke-linejoin="round"/>
<path d="M431.91 101.936L433.061 97.3322L437.09 98.4832L435.939 103.087" stroke="#8A1539" stroke-width="3" stroke-miterlimit="10" stroke-linecap="round" stroke-linejoin="round"/>
<path d="M451.763 107.404L454.065 107.979L444.281 143.949C443.706 146.538 441.116 147.977 438.526 147.402C435.937 146.826 434.498 144.236 435.073 141.647L444.857 105.677L447.447 106.253" stroke="#8A1539" stroke-width="3" stroke-miterlimit="10" stroke-linecap="round" stroke-linejoin="round"/>
<path d="M448.908 101.709L447.717 106.156L451.886 107.273L453.078 102.826L448.908 101.709Z" stroke="#8A1539" stroke-width="3" stroke-miterlimit="10" stroke-linecap="round" stroke-linejoin="round"/>
<path d="M467.589 111.432L469.891 112.008L460.108 147.977C459.532 150.567 456.942 152.006 454.353 151.43C451.763 150.855 450.324 148.265 450.899 145.675L460.683 109.706L463.273 110.281" stroke="#8A1539" stroke-width="3" stroke-miterlimit="10" stroke-linecap="round" stroke-linejoin="round"/>
<path d="M464.527 105.888L463.336 110.335L467.505 111.452L468.697 107.005L464.527 105.888Z" stroke="#8A1539" stroke-width="3" stroke-miterlimit="10" stroke-linecap="round" stroke-linejoin="round"/>
<path d="M408.023 142.51L411.189 143.373C411.477 143.085 419.534 112.007 419.534 112.007L425.577 113.734" stroke="#8A1539" stroke-width="3" stroke-miterlimit="10" stroke-linecap="round" stroke-linejoin="round"/>
<path d="M457.519 122.079L450.9 120.352" stroke="#8A1539" stroke-width="3" stroke-miterlimit="10" stroke-linecap="round" stroke-linejoin="round"/>
<path d="M466.727 124.669L474.784 126.683L466.439 158.624L469.893 159.775" stroke="#8A1539" stroke-width="3" stroke-miterlimit="10" stroke-linecap="round" stroke-linejoin="round"/>
<path d="M441.693 118.05L435.074 116.036" stroke="#8A1539" stroke-width="3" stroke-miterlimit="10" stroke-linecap="round" stroke-linejoin="round"/>
<path d="M234.22 507.097H182.999H182.423H11.7837H2V532.708H235.658" stroke="#8A1539" stroke-width="3" stroke-miterlimit="10"/>
<path d="M276.232 507.097H252.061" stroke="#8A1539" stroke-width="3" stroke-miterlimit="10"/>
<path d="M274.506 532.708H253.787" stroke="#8A1539" stroke-width="3" stroke-miterlimit="10"/>
<path d="M292.348 532.708H359.395V507.097H353.64H294.074" stroke="#8A1539" stroke-width="3" stroke-miterlimit="10"/>
<path d="M234.221 507.097H183V506.234V480.336V193.73H353.64V507.097H294.074" stroke="#8A1539" stroke-width="3" stroke-miterlimit="10"/>
<path d="M276.232 507.097H252.061" stroke="#8A1539" stroke-width="3" stroke-miterlimit="10"/>
<path d="M11.7852 506.234V507.097H182.425V506.234V480.336V321.494H11.7852V488.393" stroke="#8A1539" stroke-width="3" stroke-miterlimit="10"/>
<path d="M234.22 507.097H202.566V213.298H334.071V507.097H294.073" stroke="#8A1539" stroke-width="3" stroke-miterlimit="10"/>
<path d="M276.232 507.097H252.061" stroke="#8A1539" stroke-width="3" stroke-miterlimit="10"/>
<path d="M161.705 343.939H32.502V480.624H161.705V343.939Z" stroke="#8A1539" stroke-width="3" stroke-miterlimit="10"/>
<path d="M57.5369 343.364H40.2715V468.25H57.5369V343.364Z" stroke="#8A1539" stroke-width="3" stroke-miterlimit="10"/>
<path d="M81.4216 343.364H64.1562V468.25H81.4216V343.364Z" stroke="#8A1539" stroke-width="3" stroke-miterlimit="10"/>
<path d="M105.306 343.364H88.041V468.25H105.306V343.364Z" stroke="#8A1539" stroke-width="3" stroke-miterlimit="10"/>
<path d="M129.189 343.364H111.924V468.25H129.189V343.364Z" stroke="#8A1539" stroke-width="3" stroke-miterlimit="10"/>
<path d="M153.072 343.364H135.807V468.25H153.072V343.364Z" stroke="#8A1539" stroke-width="3" stroke-miterlimit="10"/>
<path d="M297.527 230.563H243.141C233.645 230.563 225.588 222.793 225.588 213.01H314.792C314.792 222.793 307.023 230.563 297.527 230.563Z" stroke="#8A1539" stroke-width="3" stroke-miterlimit="10"/>
<path d="M182.71 507.385H4.87695C4.87695 492.422 16.9627 480.336 31.9261 480.336H182.998V507.385H182.71Z" stroke="#8A1539" stroke-width="3" stroke-miterlimit="10"/>
<path d="M239.975 426.238L243.14 429.403L239.975 429.691V426.238Z" stroke="#8A1539" stroke-width="3" stroke-miterlimit="10" stroke-linecap="round" stroke-linejoin="round"/>
<path d="M296.376 402.641L294.362 348.255L302.131 367.823L320.836 359.766L323.425 358.615C318.821 344.515 311.34 331.566 300.693 320.055C300.693 317.466 242.854 319.48 235.66 322.645C227.603 326.098 208.035 360.054 210.625 360.629L214.653 362.356L228.178 367.823L228.754 368.111L239.401 352.86L239.976 409.548L256.09 423.935L256.954 424.799C257.241 425.086 257.529 425.374 257.817 425.662C258.392 426.525 258.68 427.676 258.68 428.827" stroke="#8A1539" stroke-width="3" stroke-miterlimit="10" stroke-linecap="round" stroke-linejoin="round"/>
<path d="M296.95 419.044L297.238 425.95L291.483 426.238L284.001 426.814H281.699" stroke="#8A1539" stroke-width="3" stroke-miterlimit="10" stroke-linecap="round" stroke-linejoin="round"/>
<path d="M259.829 446.381C255.8 471.991 251.771 499.328 251.771 505.371C252.059 515.73 255.8 562.634 256.663 575.295" stroke="#8A1539" stroke-width="3" stroke-miterlimit="10" stroke-linecap="round" stroke-linejoin="round"/>
<path d="M244.291 430.554C240.55 453.575 233.932 495.875 233.932 505.659C234.219 517.169 238.248 566.663 239.111 577.598C239.111 578.749 239.399 579.324 239.399 579.612C239.399 580.763 239.975 581.914 240.262 583.065" stroke="#8A1539" stroke-width="3" stroke-miterlimit="10" stroke-linecap="round" stroke-linejoin="round"/>
<path d="M274.217 446.381C275.368 471.703 276.232 499.328 276.232 505.946C275.944 516.018 272.491 559.757 271.34 574.144" stroke="#8A1539" stroke-width="3" stroke-miterlimit="10" stroke-linecap="round" stroke-linejoin="round"/>
<path d="M288.031 583.353C288.607 582.49 288.895 581.339 288.895 580.188C288.895 579.9 288.895 579.037 289.182 577.598C290.046 565.8 294.074 517.457 294.362 506.234C294.65 496.45 292.635 448.107 291.772 426.238" stroke="#8A1539" stroke-width="3" stroke-miterlimit="10" stroke-linecap="round" stroke-linejoin="round"/>
<path d="M237.674 578.749C237.674 578.749 237.674 583.065 238.825 583.353C239.112 583.353 239.4 583.353 240.264 582.777C242.853 581.338 248.608 577.598 250.91 575.871C252.925 574.432 255.227 572.706 256.953 575.008C257.529 575.871 257.817 577.022 258.392 578.749C259.543 585.942 257.817 592.561 257.241 593.136C256.378 593.712 256.09 594 256.09 594H219.257C219.257 594 215.229 591.698 219.257 587.669C222.998 583.64 234.221 577.885 239.4 577.598C239.688 577.598 239.688 577.598 239.976 577.598" stroke="#8A1539" stroke-width="3" stroke-miterlimit="10" stroke-linecap="round" stroke-linejoin="round"/>
<path d="M289.468 578.749C289.468 578.749 289.468 583.065 288.317 583.353C287.166 583.641 279.109 577.886 276.231 575.871C273.354 573.857 270.189 571.555 269.038 578.749C267.887 585.943 269.613 592.561 270.189 593.137C271.052 593.712 271.34 594 271.34 594H308.172C308.172 594 312.201 591.698 308.172 587.67C304.144 583.641 292.346 577.31 287.454 577.31" stroke="#8A1539" stroke-width="3" stroke-miterlimit="10" stroke-linecap="round" stroke-linejoin="round"/>
<path d="M211.488 361.493L208.898 381.348C206.884 394.297 217.243 404.368 226.739 413.289L239.976 426.238L243.429 429.403L244.58 430.554L248.321 434.295C249.184 435.158 250.335 435.158 251.486 435.158C251.774 435.158 252.062 435.158 252.349 435.158C253.788 435.158 255.515 434.583 256.666 433.432C257.817 432.281 258.392 430.554 258.68 428.828C258.68 427.389 258.392 425.662 257.241 424.799L256.378 423.936L240.264 409.548L235.084 404.944C228.466 398.613 225.3 389.693 226.739 380.772L228.753 367.823" stroke="#8A1539" stroke-width="3" stroke-miterlimit="10" stroke-linecap="round" stroke-linejoin="round"/>
<path d="M303.569 366.672C303.569 366.672 315.08 389.405 301.267 399.188L296.375 402.354L277.959 414.727C275.657 416.741 277.096 422.784 279.398 424.799C280.549 425.95 281.988 426.525 283.714 426.525C285.153 426.525 286.592 425.95 287.743 425.086L297.239 418.756L317.094 405.807C326.59 397.749 327.741 390.843 325.727 379.333L323.137 358.327" stroke="#8A1539" stroke-width="3" stroke-miterlimit="10" stroke-linecap="round" stroke-linejoin="round"/>
<path d="M280.836 318.617C280.548 316.603 279.685 314.876 278.534 313.725C277.095 312.286 274.793 311.135 272.491 311.135H261.844C257.24 311.135 253.211 314.876 253.211 319.768H254.65" stroke="#8A1539" stroke-width="3" stroke-miterlimit="10" stroke-linecap="round" stroke-linejoin="round"/>
<path d="M239.4 278.331C218.682 261.354 249.76 249.556 255.515 253.009C256.666 253.584 265.011 255.886 270.19 259.915C275.37 263.656 275.658 263.08 276.233 262.505C276.809 261.929 284.003 264.231 284.003 264.231C284.003 264.231 288.894 267.972 286.305 268.835C286.017 268.835 284.29 271.713 284.29 271.713L283.427 295.884L271.917 311.423" stroke="#8A1539" stroke-width="3" stroke-miterlimit="10" stroke-linecap="round" stroke-linejoin="round"/>
<path d="M258.391 311.998C256.952 310.559 253.499 306.531 252.923 305.955C252.348 305.38 245.73 299.337 245.73 299.337L243.427 290.129C243.427 290.129 239.399 278.906 239.111 276.316C238.536 273.727 239.974 272.288 240.262 272" stroke="#8A1539" stroke-width="3" stroke-miterlimit="10" stroke-linecap="round" stroke-linejoin="round"/>
<path d="M284 285.525C284.863 285.525 285.727 285.525 286.59 285.525C290.906 286.388 293.784 290.704 292.92 295.021C292.057 299.337 287.741 302.215 283.424 301.351C282.273 301.064 281.41 300.776 280.547 300.2" stroke="#8A1539" stroke-width="3" stroke-miterlimit="10" stroke-linecap="round" stroke-linejoin="round"/>
<path d="M243.714 290.992C241.412 292.143 239.686 294.158 239.11 296.747C238.247 301.064 241.124 305.38 245.441 306.243C247.743 306.819 250.045 306.243 251.771 304.804" stroke="#8A1539" stroke-width="3" stroke-miterlimit="10" stroke-linecap="round" stroke-linejoin="round"/>
<path d="M274.218 446.381H259.83" stroke="#8A1539" stroke-width="3" stroke-miterlimit="10" stroke-linecap="round" stroke-linejoin="round"/>
<path d="M257.24 425.086C257.816 425.374 266.161 425.086 266.161 425.086C266.161 425.086 273.93 427.101 275.369 427.676C276.808 428.539 281.987 435.158 281.987 435.158C281.987 435.158 279.685 437.748 278.534 437.748C277.383 437.748 275.657 438.899 275.369 439.186C275.081 439.474 269.902 442.064 269.902 442.064" stroke="#8A1539" stroke-width="3" stroke-miterlimit="10" stroke-linecap="round" stroke-linejoin="round"/>
<path d="M257.814 432.28L256.088 436.021C256.088 436.021 252.635 440.05 252.635 440.625C252.923 441.201 254.361 444.654 258.102 445.517C261.843 446.38 264.145 447.243 266.447 446.092C268.749 444.654 269.9 442.639 269.612 441.776C269.612 440.913 269.037 436.884 267.886 436.309C266.735 435.733 262.418 433.431 261.267 433.143C260.116 432.568 257.814 432.28 257.814 432.28Z" stroke="#8A1539" stroke-width="3" stroke-miterlimit="10" stroke-linecap="round" stroke-linejoin="round"/>
<path d="M251.771 435.158C252.059 435.446 254.937 437.172 254.937 437.172" stroke="#8A1539" stroke-width="3" stroke-miterlimit="10" stroke-linecap="round" stroke-linejoin="round"/>
<path d="M258.391 425.087L263.57 421.634C263.57 421.634 273.066 421.922 273.354 421.922C273.642 421.922 275.368 420.483 276.807 419.044" stroke="#8A1539" stroke-width="3" stroke-miterlimit="10" stroke-linecap="round" stroke-linejoin="round"/>
<path d="M278.533 431.417L281.699 426.813L281.986 426.525" stroke="#8A1539" stroke-width="3" stroke-miterlimit="10" stroke-linecap="round" stroke-linejoin="round"/>
<path d="M280.549 275.741L277.095 284.086L275.944 278.619C275.944 278.619 273.93 282.935 273.642 283.223C273.642 283.511 271.916 280.921 271.916 280.633C271.916 280.345 269.902 284.086 269.902 284.086C269.902 284.086 269.902 286.101 268.175 284.086C266.448 282.072 264.434 284.086 264.434 284.086C264.434 284.086 262.42 280.921 262.132 280.921C261.844 280.921 260.118 282.36 259.83 282.647" stroke="#8A1539" stroke-width="3" stroke-miterlimit="10" stroke-linecap="round" stroke-linejoin="round"/>
</svg>
