
<svg width="55" height="37" version="1.1" id="Layer_1" xmlns="http://www.w3.org/2000/svg" xmlns:xlink="http://www.w3.org/1999/xlink" x="0px" y="0px"
	 viewBox="0 0 58 40" style="enable-background:new 0 0 58 40;" xml:space="preserve">
<style type="text/css">
	.st0{fill:#8A1539;stroke:#8A1539;}
	.st1{fill:#8A1539;}
	.st2{fill:#FFFFFF;}
</style>
<path class="st0" d="M56.9,1c-0.3-0.3-0.7-0.5-1.1-0.5H2.1C1.7,0.5,1.3,0.7,1,1l0.4,0.4L1,1C0.7,1.3,0.5,1.7,0.5,2.1v35.8
	c0,0.4,0.2,0.8,0.5,1.1c0.3,0.3,0.7,0.5,1.1,0.5h53.6c0.4,0,0.8-0.2,1.1-0.5c0.3-0.3,0.5-0.7,0.5-1.1V2.1C57.4,1.7,57.2,1.3,56.9,1z
	 M56.9,1l-0.4,0.4L56.9,1C56.9,1,56.9,1,56.9,1z M54.1,3.7v32.5H3.7V3.7H54.1z"/>
<path class="st0" d="M1,11l0.4,0.4l0,17.2L1,29c0,0,0,0,0,0c0.3,0.3,0.7,0.5,1.1,0.5h7.8c0.4,0,0.8-0.2,1.1-0.5
	c0.3-0.3,0.5-0.7,0.5-1.1V12.2c0-0.4-0.2-0.8-0.5-1.1c-0.3-0.3-0.7-0.5-1.1-0.5H2.1C1.7,10.6,1.3,10.7,1,11z M8.3,13.8v12.4H3.7
	V13.8H8.3z"/>
<path class="st0" d="M27.8,1l0.4,0.4L27.8,1c-0.3,0.3-0.5,0.7-0.5,1.1v35.8c0,0.4,0.2,0.8,0.5,1.1c0.3,0.3,0.7,0.5,1.1,0.5
	c0.4,0,0.8-0.2,1.1-0.5c0.3-0.3,0.5-0.7,0.5-1.1V2.1c0-0.4-0.2-0.8-0.5-1.1c-0.3-0.3-0.7-0.5-1.1-0.5C28.5,0.5,28.1,0.7,27.8,1z"/>
<path class="st0" d="M23.7,27.8c1.6,1,3.4,1.6,5.2,1.6c2.5,0,4.9-1,6.7-2.8c1.8-1.8,2.8-4.2,2.8-6.7c0-1.9-0.6-3.7-1.6-5.2
	c-1-1.6-2.5-2.8-4.2-3.5c-1.7-0.7-3.6-0.9-5.5-0.5s-3.5,1.3-4.8,2.6c-1.3,1.3-2.2,3-2.6,4.8s-0.2,3.7,0.5,5.5
	C20.9,25.3,22.1,26.8,23.7,27.8z M25.5,14.8c1-0.7,2.2-1,3.4-1c1.6,0,3.2,0.7,4.4,1.8c1.2,1.2,1.8,2.7,1.8,4.4c0,1.2-0.4,2.4-1,3.4
	c-0.7,1-1.7,1.8-2.8,2.3c-1.1,0.5-2.4,0.6-3.6,0.4c-1.2-0.2-2.3-0.8-3.2-1.7c-0.9-0.9-1.5-2-1.7-3.2c-0.2-1.2-0.1-2.5,0.4-3.6
	C23.7,16.5,24.5,15.5,25.5,14.8z"/>
<path class="st1" d="M47.2,11.4L46.8,11c0.3-0.3,0.7-0.5,1.1-0.5h7.8c0.4,0,0.8,0.2,1.1,0.5c0.3,0.3,0.5,0.7,0.5,1.1v15.6
	c0,0.4-0.2,0.8-0.5,1.1c-0.3,0.3-0.7,0.5-1.1,0.5h-7.8c-0.4,0-0.8-0.2-1.1-0.5 M47.2,11.4L46.8,29l0,0 M47.2,11.4L46.8,11
	c-0.3,0.3-0.5,0.7-0.5,1.1v15.6c0,0.4,0.2,0.8,0.5,1.1 M47.2,11.4L46.8,29 M54.1,13.8v12.4h-4.6V13.8H54.1z"/>
<path class="st1" d="M55.8,29.9h-7.8c-0.6,0-1.1-0.2-1.5-0.6l0,0c-0.4-0.4-0.6-0.9-0.6-1.5V12.2c0-0.4,0.1-0.8,0.3-1.1l0,0l0.4-0.4
	c0,0,0,0,0,0l0.4-0.4l0,0c0.3-0.2,0.7-0.3,1.1-0.3h7.8c0.6,0,1.1,0.2,1.5,0.6c0.4,0.4,0.6,0.9,0.6,1.5v15.6c0,0.6-0.2,1.1-0.6,1.5
	C56.9,29.7,56.3,29.9,55.8,29.9z M47.3,28.7c0.2,0.1,0.4,0.2,0.6,0.2h7.8c0.3,0,0.6-0.1,0.8-0.3c0.2-0.2,0.3-0.5,0.3-0.8V12.2
	c0-0.3-0.1-0.6-0.3-0.8s-0.5-0.3-0.8-0.3h-7.8c-0.3,0-0.6,0.1-0.8,0.3l0.5,0L47.3,28.7z M54.6,26.7h-5.6V13.3h5.6V26.7z M50.1,25.7
	h3.6V14.3h-3.6V25.7z"/>
<rect x="49.8" y="14" class="st2" width="4.1" height="11.9"/>
</svg>
