<svg width="59" height="43" viewBox="0 0 59 43" fill="none" xmlns="http://www.w3.org/2000/svg">
<path d="M58.2624 34.7834H47.9225V30.5246H54.0212V11.158H4.24121V30.5246H10.7423V34.7834H0V6.89917H58.2624V34.7834Z" fill="#8A1538"/>
<path d="M41.0317 30.5288H17.7617V34.7862H41.0317V30.5288Z" fill="#8A1538"/>
<path d="M43.7343 0.000165469L40.7363 3.0105L47.958 10.2619L50.956 7.25152L43.7343 0.000165469Z" fill="#8A1538"/>
<path d="M55.0698 22.9715H44.9316V10.1021H49.1726V18.7128H55.0698V22.9715Z" fill="#8A1538"/>
<path d="M14.2831 38.5467C13.1231 38.5467 11.9891 38.2013 11.0246 37.5542C10.0601 36.9071 9.30834 35.9873 8.86442 34.9113C8.42051 33.8352 8.30436 32.6511 8.53067 31.5087C8.75697 30.3664 9.31557 29.317 10.1358 28.4934C10.9561 27.6698 12.0011 27.1089 13.1389 26.8817C14.2766 26.6545 15.4558 26.7711 16.5276 27.2168C17.5993 27.6626 18.5153 28.4174 19.1597 29.3858C19.8042 30.3543 20.1482 31.4929 20.1482 32.6576C20.1464 34.2189 19.5279 35.7158 18.4283 36.8198C17.3288 37.9238 15.838 38.5449 14.2831 38.5467ZM14.2831 31.0265C13.9618 31.0265 13.6477 31.1222 13.3806 31.3014C13.1134 31.4807 12.9052 31.7354 12.7823 32.0334C12.6593 32.3315 12.6272 32.6594 12.6898 32.9758C12.7525 33.2922 12.9072 33.5829 13.1344 33.811C13.3616 34.0391 13.6511 34.1944 13.9662 34.2574C14.2813 34.3203 14.6079 34.288 14.9047 34.1645C15.2015 34.0411 15.4553 33.832 15.6337 33.5638C15.8122 33.2956 15.9075 32.9802 15.9075 32.6576C15.9069 32.2252 15.7356 31.8107 15.4311 31.505C15.1266 31.1992 14.7137 31.0272 14.2831 31.0267V31.0265Z" fill="#8A1538"/>
<path d="M44.5093 38.5467C43.3494 38.5467 42.2155 38.2013 41.251 37.5542C40.2866 36.9071 39.5349 35.9873 39.091 34.9113C38.6471 33.8352 38.5309 32.6511 38.7572 31.5087C38.9835 30.3664 39.5421 29.317 40.3623 28.4934C41.1825 27.6698 42.2275 27.1089 43.3652 26.8817C44.5028 26.6545 45.6821 26.7711 46.7537 27.2168C47.8254 27.6626 48.7413 28.4174 49.3858 29.3858C50.0302 30.3543 50.3742 31.4929 50.3742 32.6576C50.3724 34.2189 49.7539 35.7158 48.6544 36.8198C47.5549 37.9238 46.0642 38.5449 44.5093 38.5467ZM44.5093 31.0265C44.1881 31.0265 43.874 31.1222 43.6069 31.3014C43.3398 31.4807 43.1316 31.7354 43.0086 32.0334C42.8857 32.3315 42.8535 32.6594 42.9162 32.9758C42.9789 33.2922 43.1336 33.5829 43.3608 33.811C43.5879 34.0391 43.8774 34.1944 44.1925 34.2574C44.5075 34.3203 44.8342 34.288 45.131 34.1645C45.4278 34.0411 45.6815 33.832 45.86 33.5638C46.0384 33.2956 46.1337 32.9802 46.1337 32.6576C46.1331 32.2252 45.9618 31.8107 45.6573 31.505C45.3528 31.1992 44.94 31.0272 44.5093 31.0267V31.0265Z" fill="#8A1538"/>
<path d="M54.5353 38.0503H3.7168V42.3084H54.5353V38.0503Z" fill="#8A1538"/>
<path d="M39.5137 15.7913H35.2734V22.604H39.5137V15.7913Z" fill="#8A1538"/>
<path d="M33.0899 15.7913H28.8496V22.604H33.0899V15.7913Z" fill="#8A1538"/>
<path d="M26.6719 15.7913H22.4316V22.604H26.6719V15.7913Z" fill="#8A1538"/>
<path d="M20.2559 15.7913H16.0156V22.604H20.2559V15.7913Z" fill="#8A1538"/>
<path d="M13.834 15.7913H9.59375V22.604H13.834V15.7913Z" fill="#8A1538"/>
</svg>
