
<svg width="65" height="45" version="1.1" id="Layer_1" xmlns="http://www.w3.org/2000/svg" xmlns:xlink="http://www.w3.org/1999/xlink" x="0px" y="0px"
	 viewBox="0 0 35.4 45.8" style="enable-background:new 0 0 35.4 45.8;" xml:space="preserve">
<style type="text/css">
	.st0{fill:#FFFFFF;}
	.st1{fill:#891739;}
</style>
<path class="st0" d="M31.1,31.1c-8.9,0-17.7,0-26.7,0c0-0.3,0-0.7,0-1c0-6.9,0-13.8,0-20.7c0-0.7,0.2-1.2,0.7-1.7
	c0.6-0.7,1-1.2,1.6-1.9C6.8,6,6.9,6,7,6.1C7,6.4,7,6.7,7,7c0,5.1,0,10.2,0,15.3c0,2,0.8,2.8,2.8,2.8c5.3,0,10.8,0,16.1,0
	c2,0,2.8-0.8,2.8-2.8c0-5.1,0-10.2,0-15.3c0-0.3,0-0.7,0-1.2c0.9,0.9,1.7,1.7,2.3,2.3c0.1,0.1,0.1,0.3,0.1,0.6c0,7.3,0,14.6,0,21.9
	C31.1,30.8,31.1,30.9,31.1,31.1z M25.6,26.4c-0.3,0-0.6,0-0.9,0c-1,0-1.7,0.7-1.7,1.6c0,0.9,0.6,1.7,1.4,1.8c0.8,0.1,1.4,0.1,2.2,0
	c0.9-0.1,1.6-1,1.4-1.8c-0.1-0.9-0.8-1.4-1.7-1.6C26.2,26.4,25.9,26.4,25.6,26.4z M10,29.9L10,29.9c0.3-0.1,0.7,0,0.9-0.1
	c1-0.1,1.7-0.9,1.6-1.8c0-0.9-0.8-1.6-1.8-1.7c-0.6,0-1.2,0-1.8,0c-0.8,0-1.4,0.6-1.6,1.3c-0.1,0.9,0.2,1.7,1,1.9
	C9,29.9,9.6,29.9,10,29.9z"/>
<path class="st0" d="M11.4,4.4c4.3,0,8.4,0,12.8,0c0,5.4,0,10.8,0,16.2c-4.2,0-8.4,0-12.8,0C11.4,15.2,11.4,9.9,11.4,4.4z"/>
<path class="st0" d="M12.2,38c0.6-0.8,1-1.6,1.4-2.1c0.1-0.2,0.4-0.2,0.8-0.2c2.2,0,4.4,0,6.8,0c0.3,0,0.8,0.2,1,0.4
	c0.4,0.6,0.8,1.2,1.3,1.9C19.7,38,16,38,12.2,38z"/>
<g>
	<path class="st1" d="M8.4,35.6c-2,0-3.9,0-5.7,0c-2,0-2.8-0.8-2.8-2.8c0-8.3,0-16.6,0-24.9c0-1,0.3-1.8,1-2.4
		c1.6-1.6,3.1-3.1,4.7-4.7C6.2,0.2,6.9,0,7.7,0c6.8,0,13.4,0,20.2,0c0.8,0,1.4,0.3,2,0.9C31.4,2.4,33,4,34.6,5.6
		c0.7,0.6,0.9,1.2,0.9,2.1c0,8.4,0,16.9,0,25.3c0,1.7-0.9,2.4-2.6,2.4c-1.9,0-3.8,0-5.8,0c0.2,0.3,0.3,0.7,0.6,0.9c1.3,2,2.7,4,4,6
		c0.8,1.1,0.4,2.4-0.7,3.1c-1,0.7-2.3,0.3-3.1-0.7c-0.4-0.6-0.8-1.1-1.2-1.8c-0.2-0.4-0.6-0.7-1.1-0.7c-5.2,0-10.4,0-15.7,0
		c-0.6,0-0.9,0.2-1.2,0.7c-0.3,0.6-0.7,1.1-1.1,1.7c-0.8,1.2-2.1,1.4-3.2,0.8c-1.1-0.7-1.3-2.1-0.6-3.2c1.2-2,2.6-3.9,3.9-5.8
		C8,36.2,8.1,36,8.4,35.6z M31.1,31.1c0-0.2,0-0.3,0-0.4c0-7.3,0-14.6,0-21.9c0-0.2,0-0.4-0.1-0.6c-0.7-0.8-1.4-1.4-2.3-2.3
		c0,0.6,0,0.9,0,1.2c0,5.1,0,10.2,0,15.3c0,2-0.8,2.8-2.8,2.8c-5.3,0-10.8,0-16.1,0c-2,0-2.8-0.8-2.8-2.8c0-5.1,0-10.2,0-15.3
		c0-0.3,0-0.6,0-0.9C6.9,6.1,6.8,6,6.7,5.9c-0.6,0.7-1,1.2-1.6,1.8c-0.6,0.4-0.7,1-0.7,1.7c0,6.9,0,13.8,0,20.7c0,0.3,0,0.7,0,1
		C13.3,31.1,22.2,31.1,31.1,31.1z M11.4,4.4c0,5.4,0,10.8,0,16.2c4.2,0,8.4,0,12.8,0c0-5.4,0-10.8,0-16.2
		C19.9,4.4,15.8,4.4,11.4,4.4z M12.2,38c3.8,0,7.4,0,11.2,0c-0.4-0.8-0.9-1.3-1.3-1.9c-0.2-0.2-0.7-0.4-1-0.4c-2.2,0-4.4,0-6.8,0
		c-0.2,0-0.6,0.1-0.8,0.2C13.2,36.4,12.8,37.2,12.2,38z"/>
	<path class="st1" d="M25.6,26.4c0.3,0,0.7,0,0.9,0c0.9,0,1.6,0.7,1.7,1.6c0.1,0.9-0.6,1.7-1.4,1.8c-0.8,0.1-1.4,0.1-2.2,0
		c-0.9-0.1-1.6-0.9-1.4-1.8c0-0.9,0.7-1.6,1.7-1.6C25,26.4,25.3,26.4,25.6,26.4z"/>
	<path class="st1" d="M10,29.9c-0.4-0.1-1-0.1-1.4-0.2c-0.8-0.2-1.2-1-1-1.9c0.1-0.7,0.8-1.3,1.6-1.3c0.6,0,1.2,0,1.8,0
		c1,0,1.7,0.7,1.8,1.7c0,0.9-0.7,1.7-1.6,1.8C10.7,29.9,10.3,29.9,10,29.9L10,29.9z"/>
</g>
</svg>
