<svg width="46" height="37" viewBox="0 0 46 37" fill="none" xmlns="http://www.w3.org/2000/svg">
<path d="M40.9466 0.178223H4.5021C2.02594 0.178223 0.0225105 2.20417 0.0225105 4.68032V13.6845C2.49867 13.6845 4.5021 15.7105 4.5021 18.1866C4.5021 20.6628 2.49867 22.6887 0 22.6887V31.6929C0 34.1691 2.02594 36.195 4.5021 36.195H40.5189C42.9951 36.195 45.021 34.1691 45.021 31.6929V4.68032C45.021 2.20417 43.1977 0.178223 40.9466 0.178223ZM40.5189 31.6929H4.5021V25.9753C7.18085 24.422 9.0042 21.4957 9.0042 18.1866C9.0042 14.8551 7.20336 11.9512 4.52461 10.398L4.5021 4.68032H40.5189V31.6929ZM15.4647 26.4255L11.728 19.9424L13.8214 19.3797L16.6578 21.6082L22.0378 20.1675L16.6353 10.8032L19.7867 9.94778L28.8134 18.3667L34.306 16.9035C35.454 16.5884 36.6471 17.2862 36.9622 18.4342C37.2549 19.5823 36.5796 20.7753 35.409 21.113L15.4647 26.4255Z" fill="#8A1538"/>
</svg>
