<svg width="52" height="39" viewBox="0 0 52 39" fill="none" xmlns="http://www.w3.org/2000/svg">
<path d="M4.44913 15.5911H4.34913V15.6911V32.0047C4.34913 32.6212 4.59404 33.2125 5.02998 33.6484C5.46593 34.0843 6.05719 34.3293 6.6737 34.3293H45.2329C45.8494 34.3293 46.4406 34.0843 46.8766 33.6484C47.3125 33.2125 47.5574 32.6212 47.5574 32.0047V15.6911V15.5911H47.4574H4.44913ZM47.4574 11.342H47.5574V11.242V6.79286C47.5574 6.17634 47.3125 5.58508 46.8766 5.14914C46.4406 4.71319 45.8494 4.46829 45.2329 4.46829H6.6737C6.05719 4.46829 5.46593 4.71319 5.02998 5.14914C4.59404 5.58508 4.34913 6.17634 4.34913 6.79286V11.242V11.342H4.44913H47.4574ZM45.2329 38.5784H6.6737C4.93025 38.5784 3.2582 37.8858 2.02539 36.653C0.792585 35.4202 0.1 33.7481 0.1 32.0047V6.79286C0.1 5.0494 0.792585 3.37735 2.02539 2.14454C3.2582 0.911727 4.93025 0.219141 6.6737 0.219141H45.2329C46.0961 0.219141 46.951 0.389174 47.7485 0.719534C48.5461 1.04989 49.2708 1.53411 49.8812 2.14454C50.4916 2.75496 50.9758 3.47965 51.3062 4.2772C51.6365 5.07477 51.8066 5.92958 51.8066 6.79286V32.0047C51.8066 32.868 51.6365 33.7228 51.3062 34.5203C50.9758 35.3179 50.4916 36.0426 49.8812 36.653C49.2708 37.2634 48.5461 37.7476 47.7485 38.078C46.951 38.4084 46.0961 38.5784 45.2329 38.5784Z" fill="#8A1538" stroke="white" stroke-width="0.2"/>
<path d="M11.223 27.4557V23.2062H20.6628V27.4557H11.223Z" fill="#8A1538" stroke="white" stroke-width="0.2"/>
</svg>
