<svg width="47" height="45" viewBox="0 0 47 45" fill="none" xmlns="http://www.w3.org/2000/svg">
<path d="M6.64909 15.1239C8.20922 15.1239 9.47396 13.8591 9.47396 12.299C9.47396 10.7389 8.20922 9.47412 6.64909 9.47412C5.08896 9.47412 3.82422 10.7389 3.82422 12.299C3.82422 13.8591 5.08896 15.1239 6.64909 15.1239Z" fill="#8A1538"/>
<path d="M17.9499 15.1239C19.51 15.1239 20.7747 13.8591 20.7747 12.299C20.7747 10.7389 19.51 9.47412 17.9499 9.47412C16.3897 9.47412 15.125 10.7389 15.125 12.299C15.125 13.8591 16.3897 15.1239 17.9499 15.1239Z" fill="#8A1538"/>
<path d="M12.2995 6.64969C13.8596 6.64969 15.1243 5.38491 15.1243 3.82472C15.1243 2.26454 13.8596 0.999756 12.2995 0.999756C10.7393 0.999756 9.47461 2.26454 9.47461 3.82472C9.47461 5.38491 10.7393 6.64969 12.2995 6.64969Z" fill="#8A1538"/>
<path d="M43.3729 17.9488H35.1243L44.517 6.2116L40.1031 2.68054L32.0735 12.7229V0.999756H26.4238V17.9488H3.82499C3.07579 17.9488 2.35728 18.2465 1.82752 18.7762C1.29776 19.306 1.00014 20.0245 1.00014 20.7737V23.5985C0.986365 27.5056 1.99374 31.3484 3.92243 34.7462C5.85113 38.144 8.6342 40.9789 11.9959 42.9699C12.4353 43.2336 12.9382 43.3727 13.4507 43.3725H33.7472C34.2597 43.3727 34.7626 43.2336 35.202 42.9699C38.5637 40.9789 41.3468 38.144 43.2755 34.7462C45.2042 31.3484 46.2115 27.5056 46.1978 23.5985V20.7737C46.1978 20.0245 45.9001 19.306 45.3704 18.7762C44.8406 18.2465 44.1221 17.9488 43.3729 17.9488ZM32.9351 37.7228H14.2628C11.9165 36.1902 9.99091 34.0951 8.66125 31.6282C7.33158 29.1613 6.64013 26.401 6.64984 23.5985H40.5481C40.5578 26.401 39.8663 29.1613 38.5367 31.6282C37.207 34.0951 35.2813 36.1902 32.9351 37.7228Z" fill="#8A1538" stroke="white" stroke-width="1.5"/>
</svg>
